<?xml version="1.0" encoding="utf-8"?>
<!-- Uploaded to: SVG Repo, www.svgrepo.com, Generator: SVG Repo Mixer Tools -->
<svg width="800px" height="800px" viewBox="0 0 128 128" xmlns="http://www.w3.org/2000/svg" xmlns:xlink="http://www.w3.org/1999/xlink" aria-hidden="true" role="img" class="iconify iconify--noto" preserveAspectRatio="xMidYMid meet">
<path d="M53.12 3.45c-41.01 0-40.68 37.92-40.68 38.52c0 24.56 1.88 59.25 11.71 72.9c3.9 5.41 11.43 5.71 11.43 5.71l16.97-.03l16.97.03s7.54-.3 11.43-5.71c9.83-13.65 11.71-48.34 11.71-72.9c0-.6 1.47-38.52-39.54-38.52z" fill="#543930">
</path>
<radialGradient id="IconifyId17ecdb2904d178eab24590" cx="52.551" cy="68.978" r="47.532" gradientTransform="matrix(1 0 0 -1.1901 0 141.11)" gradientUnits="userSpaceOnUse">
<stop offset=".794" stop-color="#6d4c41" stop-opacity="0">
</stop>
<stop offset="1" stop-color="#6d4c41">
</stop>
</radialGradient>
<path d="M53.12 3.45c-41.01 0-40.68 37.92-40.68 38.52c0 24.56 1.88 59.25 11.71 72.9c3.9 5.41 11.43 5.71 11.43 5.71l16.97-.03l16.97.03s7.54-.3 11.43-5.71c9.83-13.65 11.71-48.34 11.71-72.9c0-.6 1.47-38.52-39.54-38.52z" fill="url(#IconifyId17ecdb2904d178eab24590)">
</path>
<radialGradient id="IconifyId17ecdb2904d178eab24591" cx="53.328" cy=".282" r="68.219" gradientTransform="matrix(1 0 0 -.6035 0 127.888)" gradientUnits="userSpaceOnUse">
<stop offset=".559" stop-color="#f5f5f5">
</stop>
<stop offset="1" stop-color="#c6c6c6">
</stop>
</radialGradient>
<path d="M51.92 96.45c-23.62.07-48.11 7.33-48.11 25.05v3.04h96.23v-3.04c0-17.72-24.5-24.98-48.12-25.05z" fill="url(#IconifyId17ecdb2904d178eab24591)">
</path>
<linearGradient id="IconifyId17ecdb2904d178eab24592" gradientUnits="userSpaceOnUse" x1="87.922" y1="13.052" x2="102.38" y2="11.137" gradientTransform="matrix(1 0 0 -1 0 128)">
<stop offset="0" stop-color="#9e9e9e" stop-opacity="0">
</stop>
<stop offset=".788" stop-color="#9e9e9e">
</stop>
</linearGradient>
<path d="M90.03 105.14l-5.82 19.41h15.83v-3.04c0-7.05-3.87-12.43-10.01-16.37z" fill="url(#IconifyId17ecdb2904d178eab24592)">
</path>
<path d="M52 92.53h-9.08v9.98c0 4.51 3.7 8.17 8.26 8.17h1.65c4.56 0 8.26-3.66 8.26-8.17v-9.98H52z" fill="#e59600">
</path>
<linearGradient id="IconifyId17ecdb2904d178eab24593" gradientUnits="userSpaceOnUse" x1="52.21" y1="22.296" x2="52.21" y2="3.267" gradientTransform="matrix(1 0 0 -1 0 128)">
<stop offset=".003" stop-color="#80cbc4">
</stop>
<stop offset=".333" stop-color="#73c6be">
</stop>
<stop offset=".941" stop-color="#51b8ae">
</stop>
<stop offset="1" stop-color="#4db6ac">
</stop>
</linearGradient>
<path fill="url(#IconifyId17ecdb2904d178eab24593)" d="M62.78 105.7H41.64l2.42 18.85h16.56z">
</path>
<linearGradient id="IconifyId17ecdb2904d178eab24594" gradientUnits="userSpaceOnUse" x1="38.665" y1="10.657" x2="38.665" y2="30.86" gradientTransform="matrix(1 0 0 -1 0 128)">
<stop offset=".335" stop-color="#e0e0e0">
</stop>
<stop offset=".668" stop-color="#d0d0d0">
</stop>
<stop offset=".987" stop-color="#bdbdbd">
</stop>
</linearGradient>
<path d="M43.05 96.77c-5.92.43-8.69.94-8.69.94l-3.13 7.3l5.25 4.39l-4.88 6.15l7.12 9h7.38l-3.05-27.78z" fill="url(#IconifyId17ecdb2904d178eab24594)">
</path>
<linearGradient id="IconifyId17ecdb2904d178eab24595" gradientUnits="userSpaceOnUse" x1="38.553" y1="10.657" x2="38.553" y2="30.86" gradientTransform="rotate(180 52.079 64)">
<stop offset=".335" stop-color="#e0e0e0">
</stop>
<stop offset=".668" stop-color="#d0d0d0">
</stop>
<stop offset=".987" stop-color="#bdbdbd">
</stop>
</linearGradient>
<path d="M61.22 96.77c5.92.43 8.69.94 8.69.94l3.13 7.3l-5.25 4.39l4.88 6.15l-7.12 9h-7.38l3.05-27.78z" fill="url(#IconifyId17ecdb2904d178eab24595)">
</path>
<g>
<path d="M122.32 74.01c1.14 7.79-.11 16.87-.11 16.87l-10.26-.9s-.39-5.91 0-5.92l10.37-10.05z" fill="#80cbc4">
</path>
<linearGradient id="IconifyId17ecdb2904d178eab24596" gradientUnits="userSpaceOnUse" x1="97.973" y1="22.785" x2="123.716" y2="19.374" gradientTransform="matrix(1 0 0 -1 0 128)">
<stop offset=".437" stop-color="#f5f5f5">
</stop>
<stop offset="1" stop-color="#c6c6c6">
</stop>
</linearGradient>
<path d="M111.99 88.35c-6.66-.81-9.59-1.6-9.59-1.6l-11.34 37.8h28.19l4.14-36.21s-3.15 1.01-11.4.01z" fill="url(#IconifyId17ecdb2904d178eab24596)">
</path>
<linearGradient id="IconifyId17ecdb2904d178eab24597" gradientUnits="userSpaceOnUse" x1="118.567" y1="75.431" x2="96.091" y2="22.72" gradientTransform="matrix(1 0 0 -1 0 128)">
<stop offset="0" stop-color="#b3e5fc" stop-opacity=".8">
</stop>
<stop offset=".083" stop-color="#aee3fc" stop-opacity=".817">
</stop>
<stop offset=".674" stop-color="#8dd8fa" stop-opacity=".935">
</stop>
<stop offset="1" stop-color="#81d4fa">
</stop>
</linearGradient>
<path d="M110.49 113.13c-2.27 1.4-9.11.12-15.75-2.25c-5.12-1.83-9.23-4.16-9.27-4.17c-.53-.25-5.5-2.95-5.5-5.74c0-2.32 1.96-3.89 2.44-4.43l.1-.1l17.46-17.59l13.14-31.8l.02-.01s2.36-.81 5.67.49s5.01 3.46 5.01 3.46l-.02.01l-11.85 32.62s.03 23.38 0 25.39c-.04 2.72-.36 3.45-1.45 4.12z" opacity=".86" fill="url(#IconifyId17ecdb2904d178eab24597)">
</path>
<radialGradient id="IconifyId17ecdb2904d178eab24598" cx="112.423" cy="39.875" r="25.366" gradientTransform="scale(1 -1) rotate(-13.308 -444.826 -16.588)" gradientUnits="userSpaceOnUse">
<stop offset="0" stop-color="#ce93d8">
</stop>
<stop offset=".205" stop-color="#ca8ad5">
</stop>
<stop offset=".537" stop-color="#bf73cc">
</stop>
<stop offset=".95" stop-color="#ad4cbe">
</stop>
<stop offset="1" stop-color="#ab47bc">
</stop>
</radialGradient>
<path d="M106.89 111.57c-5.64-2.2-17.38-6.85-23.03-9.14c-1.53-.63-1.93-2.6-.77-3.77l7.43-7.49l19.51-.94v19.19c.01 1.62-1.62 2.74-3.14 2.15z" opacity=".8" fill="url(#IconifyId17ecdb2904d178eab24598)">
</path>
<path fill="#ffffff" d="M96.849 100.281l.772-1.845l6.273 2.626l-.773 1.845z">
</path>
<path fill="#ffffff" d="M98.864 94.837l.772-1.845l6.273 2.626l-.773 1.845z">
</path>
<path fill="#ffffff" d="M100.898 89.397l.772-1.844l6.272 2.626l-.772 1.845z">
</path>
<path fill="#ffffff" d="M102.92 83.96l.772-1.844l6.272 2.626l-.772 1.845z">
</path>
<path fill="#ffffff" d="M104.934 78.516l.773-1.844l6.272 2.626l-.773 1.845z">
</path>
<path fill="#ffffff" d="M106.955 73.083l.772-1.845l6.272 2.626l-.772 1.845z">
</path>
<path fill="#ffffff" d="M108.978 67.644l.772-1.845l6.273 2.625l-.773 1.845z">
</path>
<path fill="#ffffff" d="M111.483 61.319l.772-1.845l6.273 2.626l-.773 1.844z">
</path>
<path fill="#ffffff" d="M113.508 55.876l.772-1.845l6.273 2.625l-.772 1.845z">
</path>
<path d="M98.74 80.1s-2.53-2.14-2.52-4.09c.01-1.56 1.89-3.04 1.89-3.04s-1.8-2.77-1.14-4.28c.94-2.14 3.41-2.55 3.41-2.55s-1.12-2.79.65-4.43c1.26-1.17 4.9-.68 4.9-.68s.36-4.58 4.82-3.43c1.74.45 7.91 3.99 10.21 11.46c1.44 4.67 2 6.06 1.54 13.06c-.2 2.97-7.71 2.97-10.54 1.95c-7.05-2.54-9.05-5.64-10.02-5.62c-.98.01-3.2 1.65-3.2 1.65z" fill="#80cbc4">
</path>
<g fill="#26a69a">
<path d="M99.61 71.23c-.72.13-1.28.71-1.44 1.43l-.07.31l4.18-1.43c-.98-.46-1.95-.44-2.67-.31z">
</path>
<path d="M104.69 66.42c-.57-.63-1.23-.99-1.82-1.2c-.94-.33-1.98.07-2.5.92l4.32.28z">
</path>
<path d="M107.98 60.37c-.73-.29-1.6-.07-2.04.58c-.01.02-.02.04-.03.05c1.78.22 4.45 1.34 4.45 1.34c-.54-1.06-1.56-1.65-2.38-1.97z">
</path>
</g>
<ellipse transform="rotate(-68.482 95.977 105.65)" cx="95.98" cy="105.65" rx="3.35" ry="14.43" fill="#8f5d9b">
</ellipse>
<ellipse transform="rotate(-68.507 118.364 49.346)" cx="118.37" cy="49.35" rx="3.09" ry="5.73" fill="#81d4fa">
</ellipse>
</g>
<g>
<path d="M52.11 16.04c-17.2 0-33.13 12.79-33.13 39.91c0 21.78 13.49 34.67 25.23 38.83c2.8.99 5.5 1.49 7.9 1.49c2.38 0 5.07-.49 7.85-1.47c11.76-4.14 25.28-17.03 25.28-38.84c0-27.13-15.93-39.92-33.13-39.92z" fill="#ffca28">
</path>
</g>
<path d="M55.86 68.26c-.11-.04-.21-.07-.32-.08h-7.08c-.11.01-.22.04-.32.08c-.64.26-.99.92-.69 1.63c.3.71 1.71 2.69 4.55 2.69s4.25-1.99 4.55-2.69c.3-.7-.05-1.37-.69-1.63z" fill="#e59600">
</path>
<path d="M60.53 76.35c-3.19 1.89-13.63 1.89-16.81 0c-1.83-1.09-3.7.58-2.94 2.24c.75 1.63 6.44 5.42 11.37 5.42s10.55-3.79 11.3-5.42c.75-1.67-1.09-3.33-2.92-2.24z" fill="#795548">
</path>
<g fill="#6d4c41">
<path d="M43.77 49.97c-.93-1.23-3.07-3.01-7.23-3.01s-6.31 1.79-7.23 3.01c-.41.54-.31 1.17-.02 1.55c.26.35 1.04.68 1.9.39s2.54-1.16 5.35-1.18c2.81.02 4.49.89 5.35 1.18c.86.29 1.64-.03 1.9-.39c.29-.37.39-1-.02-1.55z">
</path>
<path d="M74.92 49.97c-.93-1.23-3.07-3.01-7.23-3.01s-6.31 1.79-7.23 3.01c-.41.54-.31 1.17-.02 1.55c.26.35 1.04.68 1.9.39s2.54-1.16 5.35-1.18c2.81.02 4.49.89 5.35 1.18c.86.29 1.64-.03 1.9-.39c.28-.37.38-1-.02-1.55z">
</path>
</g>
<g fill="#404040">
<ellipse cx="36.54" cy="59.02" rx="4.93" ry="5.1">
</ellipse>
<ellipse cx="67.68" cy="59.02" rx="4.93" ry="5.1">
</ellipse>
</g>
<g>
<linearGradient id="IconifyId17ecdb2904d178eab24599" gradientUnits="userSpaceOnUse" x1="51.654" y1="83.691" x2="51.654" y2="59.498" gradientTransform="matrix(1 0 0 -1 0 128)">
<stop offset=".203" stop-color="#b3e5fc" stop-opacity=".5">
</stop>
<stop offset="1" stop-color="#b3e5fc" stop-opacity=".2">
</stop>
</linearGradient>
<path d="M31.1 44.31h42.65l5.79 5.1v15.03s-3.94 5.5-13.44 3.19s-8.23-8.05-13.88-8.05s-8.25 9.17-20.62 8.92c0 0-6.38-.56-7.56-4.56l-.27-16.61l7.33-3.02z" fill="url(#IconifyId17ecdb2904d178eab24599)">
</path>
<linearGradient id="IconifyId17ecdb2904d178eab24600" gradientUnits="userSpaceOnUse" x1="80.209" y1="72.219" x2="80.209" y2="84.847" gradientTransform="matrix(1 0 0 -1 0 128)">
<stop offset="0" stop-color="#bdbdbd">
</stop>
<stop offset="1" stop-color="#e0e0e0">
</stop>
</linearGradient>
<path d="M88.28 54.76c.01.67-.19 1.32-.57 1.87l-5.47 8.05c-2.06 2.85-9.3 4.43-9.3 4.43l8.18-9.14l-1.56-11.5l-7.43-5.8s3.07.3 5.24.3s4.33 1.39 5.44 2.16l4.02 2.77c.88.61 1.4 1.6 1.41 2.67l.04 4.19z" fill="url(#IconifyId17ecdb2904d178eab24600)">
</path>
<linearGradient id="IconifyId17ecdb2904d178eab24601" gradientUnits="userSpaceOnUse" x1="24.041" y1="72.386" x2="24.041" y2="84.508" gradientTransform="matrix(1 0 0 -1 0 128)">
<stop offset="0" stop-color="#bdbdbd">
</stop>
<stop offset="1" stop-color="#e0e0e0">
</stop>
</linearGradient>
<path d="M15.97 54.76c-.01.67.19 1.32.57 1.87L22 64.68c2.06 2.85 9.3 4.43 9.3 4.43l-8.18-9.14l1.56-11.5l7.43-5.8s-3.07.3-5.24.3s-4.33 1.39-5.44 2.16l-4.02 2.77c-.88.61-1.4 1.6-1.41 2.67l-.03 4.19z" fill="url(#IconifyId17ecdb2904d178eab24601)">
</path>
<g>
<radialGradient id="IconifyId17ecdb2904d178eab24602" cx="52.111" cy="71.87" r="22.896" gradientTransform="matrix(0 1 1.4084 0 -49.11 4.017)" gradientUnits="userSpaceOnUse">
<stop offset="0" stop-color="#f5f5f5">
</stop>
<stop offset=".676" stop-color="#eee">
</stop>
<stop offset="1" stop-color="#e0e0e0">
</stop>
</radialGradient>
<path d="M71.58 45.63c1.1 0 2.93.35 4.48 1.34c2.1 1.34 2.16 2.89 2.18 3.4c.03.77.06 1.51.1 2.25c.1 2.31.2 4.49.2 6.61c0 4.35-3.91 7.38-9.5 7.38c-3.95 0-8.42-3.33-10.46-5.57c-1.6-1.75-3.96-2.76-6.48-2.76c-2.52 0-4.88 1.01-6.48 2.76c-2.04 2.24-6.51 5.57-10.46 5.57c-5.59 0-9.5-3.03-9.5-7.38c0-2.13.1-4.31.2-6.61c.03-.74.07-1.49.1-2.25c.02-.51.08-2.06 2.18-3.4c1.55-.99 3.38-1.34 4.48-1.34h38.96m0-3H32.64c-3.58 0-9.44 2.3-9.66 7.62c-.13 3.2-.3 6.1-.3 8.99c0 6 5.21 10.38 12.5 10.38c5 0 10.15-3.78 12.67-6.55c1.08-1.18 2.67-1.78 4.26-1.78s3.19.6 4.26 1.78c2.53 2.77 7.67 6.55 12.67 6.55c7.29 0 12.5-4.38 12.5-10.38c0-2.88-.17-5.79-.3-8.99c-.21-5.32-6.07-7.62-9.66-7.62z" fill="url(#IconifyId17ecdb2904d178eab24602)">
</path>
</g>
</g>
<g>
<path d="M53.12 3.45c-41.01 0-40.68 37.92-40.68 38.52c0 7.76.19 16.53.75 25.32l6.72-.02c-.06-2.92 1.99-20.97 8.08-22.34C50.35 39.9 63 28.04 63 28.04c3.29 7.18 13.58 14.19 17.27 16.86c3.03 2.19 3.96 18.55 3.9 22.38h7.71c0-.05.02-.1.02-.16c.56-8.75.74-17.46.74-25.17c.02-.58 1.49-38.5-39.52-38.5z" fill="#543930">
</path>
<radialGradient id="IconifyId17ecdb2904d178eab24603" cx="52.885" cy="64.954" r="49.788" gradientTransform="matrix(1 0 0 -1.2135 0 141.87)" gradientUnits="userSpaceOnUse">
<stop offset=".794" stop-color="#6d4c41" stop-opacity="0">
</stop>
<stop offset="1" stop-color="#6d4c41">
</stop>
</radialGradient>
<path d="M53.12 3.45c-41.01 0-40.68 37.92-40.68 38.52c0 7.76.19 16.53.75 25.32l6.72-.02c-.06-2.92 1.99-20.97 8.08-22.34C50.35 39.9 63 28.04 63 28.04c3.29 7.18 13.58 14.19 17.27 16.86c3.03 2.19 3.96 18.55 3.9 22.38h7.71c0-.05.02-.1.02-.16c.56-8.75.74-17.46.74-25.17c.02-.58 1.49-38.5-39.52-38.5z" fill="url(#IconifyId17ecdb2904d178eab24603)">
</path>
</g>
</svg>