<?xml version="1.0" encoding="utf-8" standalone="no"?>
<!DOCTYPE svg PUBLIC "-//W3C//DTD SVG 1.1//EN"
  "http://www.w3.org/Graphics/SVG/1.1/DTD/svg11.dtd">
<svg xmlns:xlink="http://www.w3.org/1999/xlink" width="972.635pt" height="63.501878pt" viewBox="0 0 972.635 63.501878" xmlns="http://www.w3.org/2000/svg" version="1.1">
 <metadata>
  <rdf:RDF xmlns:dc="http://purl.org/dc/elements/1.1/" xmlns:cc="http://creativecommons.org/ns#" xmlns:rdf="http://www.w3.org/1999/02/22-rdf-syntax-ns#">
   <cc:Work>
    <dc:type rdf:resource="http://purl.org/dc/dcmitype/StillImage"/>
    <dc:date>2025-04-16T15:30:41.637367</dc:date>
    <dc:format>image/svg+xml</dc:format>
    <dc:creator>
     <cc:Agent>
      <dc:title>Matplotlib v3.6.3, https://matplotlib.org/</dc:title>
     </cc:Agent>
    </dc:creator>
   </cc:Work>
  </rdf:RDF>
 </metadata>
 <defs>
  <style type="text/css">*{stroke-linejoin: round; stroke-linecap: butt}</style>
 </defs>
 <g id="figure_1">
  <g id="patch_1">
   <path d="M 0 63.501878 
L 972.635 63.501878 
L 972.635 0 
L 0 0 
z
" style="fill: #ffffff"/>
  </g>
  <g id="axes_1">
   <g id="patch_2">
    <path d="M 7.2 52.801878 
L 965.435 52.801878 
L 965.435 26.090878 
L 7.2 26.090878 
z
" style="fill: #ffffff"/>
   </g>
   <g id="patch_3">
    <path d="M 7.2 51.587742 
L 7.200024 51.587742 
L 7.200024 27.305014 
L 7.2 27.305014 
z
" clip-path="url(#p92e1c09d60)" style="fill: #ffbb78; stroke: #ffbb78; stroke-linejoin: miter"/>
   </g>
   <g id="patch_4">
    <path d="M 7.200024 51.587742 
L 7.669612 51.587742 
L 7.669612 27.305014 
L 7.200024 27.305014 
z
" clip-path="url(#p92e1c09d60)" style="fill: #2ca02c; stroke: #2ca02c; stroke-linejoin: miter"/>
   </g>
   <g id="patch_5">
    <path d="M 7.669612 51.587742 
L 8.790184 51.587742 
L 8.790184 27.305014 
L 7.669612 27.305014 
z
" clip-path="url(#p92e1c09d60)" style="fill: #98df8a; stroke: #98df8a; stroke-linejoin: miter"/>
   </g>
   <g id="patch_6">
    <path d="M 8.790184 51.587742 
L 22.248962 51.587742 
L 22.248962 27.305014 
L 8.790184 27.305014 
z
" clip-path="url(#p92e1c09d60)" style="fill: #d62728; stroke: #d62728; stroke-linejoin: miter"/>
   </g>
   <g id="patch_7">
    <path d="M 22.248962 51.587742 
L 23.092664 51.587742 
L 23.092664 27.305014 
L 22.248962 27.305014 
z
" clip-path="url(#p92e1c09d60)" style="fill: #ff9896; stroke: #000000; stroke-linejoin: miter"/>
   </g>
   <g id="patch_8">
    <path d="M 23.092664 51.587742 
L 26.021155 51.587742 
L 26.021155 27.305014 
L 23.092664 27.305014 
z
" clip-path="url(#p92e1c09d60)" style="fill: #ffffff; stroke: #ffffff; stroke-linejoin: miter"/>
   </g>
   <g id="patch_9">
    <path d="M 26.021155 51.587742 
L 27.294993 51.587742 
L 27.294993 27.305014 
L 26.021155 27.305014 
z
" clip-path="url(#p92e1c09d60)" style="fill: #c5b0d5; stroke: #c5b0d5; stroke-linejoin: miter"/>
   </g>
   <g id="patch_10">
    <path d="M 27.294993 51.587742 
L 27.295564 51.587742 
L 27.295564 27.305014 
L 27.294993 27.305014 
z
" clip-path="url(#p92e1c09d60)" style="fill: #ffffff; stroke: #ffffff; stroke-linejoin: miter"/>
   </g>
   <g id="patch_11">
    <path d="M 27.295564 51.587742 
L 28.752572 51.587742 
L 28.752572 27.305014 
L 27.295564 27.305014 
z
" clip-path="url(#p92e1c09d60)" style="fill: #c49c94; stroke: #c49c94; stroke-linejoin: miter"/>
   </g>
   <g id="patch_12">
    <path d="M 28.752572 51.587742 
L 31.265726 51.587742 
L 31.265726 27.305014 
L 28.752572 27.305014 
z
" clip-path="url(#p92e1c09d60)" style="fill: #e377c2; stroke: #e377c2; stroke-linejoin: miter"/>
   </g>
   <g id="patch_13">
    <path d="M 31.265726 51.587742 
L 136.219939 51.587742 
L 136.219939 27.305014 
L 31.265726 27.305014 
z
" clip-path="url(#p92e1c09d60)" style="fill: #f7b6d2; stroke: #f7b6d2; stroke-linejoin: miter"/>
   </g>
   <g id="patch_14">
    <path d="M 136.219939 51.587742 
L 965.392987 51.587742 
L 965.392987 27.305014 
L 136.219939 27.305014 
z
" clip-path="url(#p92e1c09d60)" style="fill: #7f7f7f; stroke: #7f7f7f; stroke-linejoin: miter"/>
   </g>
   <g id="patch_15">
    <path d="M 965.392987 51.587742 
L 965.421633 51.587742 
L 965.421633 27.305014 
L 965.392987 27.305014 
z
" clip-path="url(#p92e1c09d60)" style="fill: #ffffff; stroke: #ffffff; stroke-linejoin: miter"/>
   </g>
   <g id="patch_16">
    <path d="M 965.421633 51.587742 
L 965.435 51.587742 
L 965.435 27.305014 
L 965.421633 27.305014 
z
" clip-path="url(#p92e1c09d60)" style="fill: #ffffff; stroke: #ffffff; stroke-linejoin: miter"/>
   </g>
   <g id="patch_17">
    <path d="M 7.2 52.801878 
L 965.435 52.801878 
" style="fill: none; stroke: #000000; stroke-width: 0.8; stroke-linejoin: miter; stroke-linecap: square"/>
   </g>
   <g id="legend_1">
    <g id="patch_18">
     <path d="M 14.697 16.861498 
L 31.357 16.861498 
L 31.357 11.030498 
L 14.697 11.030498 
z
" style="fill: #ffbb78; stroke: #ffbb78; stroke-linejoin: miter"/>
    </g>
    <g id="text_1">
     <!-- header -->
     <g style="fill: #ffbb78" transform="translate(38.021 16.861498) scale(0.0833 -0.0833)">
      <defs>
       <path id="DejaVuSans-68" d="M 3513 2113 
L 3513 0 
L 2938 0 
L 2938 2094 
Q 2938 2591 2744 2837 
Q 2550 3084 2163 3084 
Q 1697 3084 1428 2787 
Q 1159 2491 1159 1978 
L 1159 0 
L 581 0 
L 581 4863 
L 1159 4863 
L 1159 2956 
Q 1366 3272 1645 3428 
Q 1925 3584 2291 3584 
Q 2894 3584 3203 3211 
Q 3513 2838 3513 2113 
z
" transform="scale(0.015625)"/>
       <path id="DejaVuSans-65" d="M 3597 1894 
L 3597 1613 
L 953 1613 
Q 991 1019 1311 708 
Q 1631 397 2203 397 
Q 2534 397 2845 478 
Q 3156 559 3463 722 
L 3463 178 
Q 3153 47 2828 -22 
Q 2503 -91 2169 -91 
Q 1331 -91 842 396 
Q 353 884 353 1716 
Q 353 2575 817 3079 
Q 1281 3584 2069 3584 
Q 2775 3584 3186 3129 
Q 3597 2675 3597 1894 
z
M 3022 2063 
Q 3016 2534 2758 2815 
Q 2500 3097 2075 3097 
Q 1594 3097 1305 2825 
Q 1016 2553 972 2059 
L 3022 2063 
z
" transform="scale(0.015625)"/>
       <path id="DejaVuSans-61" d="M 2194 1759 
Q 1497 1759 1228 1600 
Q 959 1441 959 1056 
Q 959 750 1161 570 
Q 1363 391 1709 391 
Q 2188 391 2477 730 
Q 2766 1069 2766 1631 
L 2766 1759 
L 2194 1759 
z
M 3341 1997 
L 3341 0 
L 2766 0 
L 2766 531 
Q 2569 213 2275 61 
Q 1981 -91 1556 -91 
Q 1019 -91 701 211 
Q 384 513 384 1019 
Q 384 1609 779 1909 
Q 1175 2209 1959 2209 
L 2766 2209 
L 2766 2266 
Q 2766 2663 2505 2880 
Q 2244 3097 1772 3097 
Q 1472 3097 1187 3025 
Q 903 2953 641 2809 
L 641 3341 
Q 956 3463 1253 3523 
Q 1550 3584 1831 3584 
Q 2591 3584 2966 3190 
Q 3341 2797 3341 1997 
z
" transform="scale(0.015625)"/>
       <path id="DejaVuSans-64" d="M 2906 2969 
L 2906 4863 
L 3481 4863 
L 3481 0 
L 2906 0 
L 2906 525 
Q 2725 213 2448 61 
Q 2172 -91 1784 -91 
Q 1150 -91 751 415 
Q 353 922 353 1747 
Q 353 2572 751 3078 
Q 1150 3584 1784 3584 
Q 2172 3584 2448 3432 
Q 2725 3281 2906 2969 
z
M 947 1747 
Q 947 1113 1208 752 
Q 1469 391 1925 391 
Q 2381 391 2643 752 
Q 2906 1113 2906 1747 
Q 2906 2381 2643 2742 
Q 2381 3103 1925 3103 
Q 1469 3103 1208 2742 
Q 947 2381 947 1747 
z
" transform="scale(0.015625)"/>
       <path id="DejaVuSans-72" d="M 2631 2963 
Q 2534 3019 2420 3045 
Q 2306 3072 2169 3072 
Q 1681 3072 1420 2755 
Q 1159 2438 1159 1844 
L 1159 0 
L 581 0 
L 581 3500 
L 1159 3500 
L 1159 2956 
Q 1341 3275 1631 3429 
Q 1922 3584 2338 3584 
Q 2397 3584 2469 3576 
Q 2541 3569 2628 3553 
L 2631 2963 
z
" transform="scale(0.015625)"/>
      </defs>
      <use xlink:href="#DejaVuSans-68"/>
      <use xlink:href="#DejaVuSans-65" x="63.378906"/>
      <use xlink:href="#DejaVuSans-61" x="124.902344"/>
      <use xlink:href="#DejaVuSans-64" x="186.181641"/>
      <use xlink:href="#DejaVuSans-65" x="249.658203"/>
      <use xlink:href="#DejaVuSans-72" x="311.181641"/>
     </g>
    </g>
    <g id="patch_19">
     <path d="M 84.028631 16.861498 
L 100.688631 16.861498 
L 100.688631 11.030498 
L 84.028631 11.030498 
z
" style="fill: #2ca02c; stroke: #2ca02c; stroke-linejoin: miter"/>
    </g>
    <g id="text_2">
     <!-- offsets -->
     <g style="fill: #2ca02c" transform="translate(107.352631 16.861498) scale(0.0833 -0.0833)">
      <defs>
       <path id="DejaVuSans-6f" d="M 1959 3097 
Q 1497 3097 1228 2736 
Q 959 2375 959 1747 
Q 959 1119 1226 758 
Q 1494 397 1959 397 
Q 2419 397 2687 759 
Q 2956 1122 2956 1747 
Q 2956 2369 2687 2733 
Q 2419 3097 1959 3097 
z
M 1959 3584 
Q 2709 3584 3137 3096 
Q 3566 2609 3566 1747 
Q 3566 888 3137 398 
Q 2709 -91 1959 -91 
Q 1206 -91 779 398 
Q 353 888 353 1747 
Q 353 2609 779 3096 
Q 1206 3584 1959 3584 
z
" transform="scale(0.015625)"/>
       <path id="DejaVuSans-66" d="M 2375 4863 
L 2375 4384 
L 1825 4384 
Q 1516 4384 1395 4259 
Q 1275 4134 1275 3809 
L 1275 3500 
L 2222 3500 
L 2222 3053 
L 1275 3053 
L 1275 0 
L 697 0 
L 697 3053 
L 147 3053 
L 147 3500 
L 697 3500 
L 697 3744 
Q 697 4328 969 4595 
Q 1241 4863 1831 4863 
L 2375 4863 
z
" transform="scale(0.015625)"/>
       <path id="DejaVuSans-73" d="M 2834 3397 
L 2834 2853 
Q 2591 2978 2328 3040 
Q 2066 3103 1784 3103 
Q 1356 3103 1142 2972 
Q 928 2841 928 2578 
Q 928 2378 1081 2264 
Q 1234 2150 1697 2047 
L 1894 2003 
Q 2506 1872 2764 1633 
Q 3022 1394 3022 966 
Q 3022 478 2636 193 
Q 2250 -91 1575 -91 
Q 1294 -91 989 -36 
Q 684 19 347 128 
L 347 722 
Q 666 556 975 473 
Q 1284 391 1588 391 
Q 1994 391 2212 530 
Q 2431 669 2431 922 
Q 2431 1156 2273 1281 
Q 2116 1406 1581 1522 
L 1381 1569 
Q 847 1681 609 1914 
Q 372 2147 372 2553 
Q 372 3047 722 3315 
Q 1072 3584 1716 3584 
Q 2034 3584 2315 3537 
Q 2597 3491 2834 3397 
z
" transform="scale(0.015625)"/>
       <path id="DejaVuSans-74" d="M 1172 4494 
L 1172 3500 
L 2356 3500 
L 2356 3053 
L 1172 3053 
L 1172 1153 
Q 1172 725 1289 603 
Q 1406 481 1766 481 
L 2356 481 
L 2356 0 
L 1766 0 
Q 1100 0 847 248 
Q 594 497 594 1153 
L 594 3053 
L 172 3053 
L 172 3500 
L 594 3500 
L 594 4494 
L 1172 4494 
z
" transform="scale(0.015625)"/>
      </defs>
      <use xlink:href="#DejaVuSans-6f"/>
      <use xlink:href="#DejaVuSans-66" x="61.181641"/>
      <use xlink:href="#DejaVuSans-66" x="96.386719"/>
      <use xlink:href="#DejaVuSans-73" x="131.591797"/>
      <use xlink:href="#DejaVuSans-65" x="183.691406"/>
      <use xlink:href="#DejaVuSans-74" x="245.214844"/>
      <use xlink:href="#DejaVuSans-73" x="284.423828"/>
     </g>
    </g>
    <g id="patch_20">
     <path d="M 152.044383 16.861498 
L 168.704383 16.861498 
L 168.704383 11.030498 
L 152.044383 11.030498 
z
" style="fill: #98df8a; stroke: #98df8a; stroke-linejoin: miter"/>
    </g>
    <g id="text_3">
     <!-- tiles0 -->
     <g style="fill: #98df8a" transform="translate(175.368383 16.861498) scale(0.0833 -0.0833)">
      <defs>
       <path id="DejaVuSans-69" d="M 603 3500 
L 1178 3500 
L 1178 0 
L 603 0 
L 603 3500 
z
M 603 4863 
L 1178 4863 
L 1178 4134 
L 603 4134 
L 603 4863 
z
" transform="scale(0.015625)"/>
       <path id="DejaVuSans-6c" d="M 603 4863 
L 1178 4863 
L 1178 0 
L 603 0 
L 603 4863 
z
" transform="scale(0.015625)"/>
       <path id="DejaVuSans-30" d="M 2034 4250 
Q 1547 4250 1301 3770 
Q 1056 3291 1056 2328 
Q 1056 1369 1301 889 
Q 1547 409 2034 409 
Q 2525 409 2770 889 
Q 3016 1369 3016 2328 
Q 3016 3291 2770 3770 
Q 2525 4250 2034 4250 
z
M 2034 4750 
Q 2819 4750 3233 4129 
Q 3647 3509 3647 2328 
Q 3647 1150 3233 529 
Q 2819 -91 2034 -91 
Q 1250 -91 836 529 
Q 422 1150 422 2328 
Q 422 3509 836 4129 
Q 1250 4750 2034 4750 
z
" transform="scale(0.015625)"/>
      </defs>
      <use xlink:href="#DejaVuSans-74"/>
      <use xlink:href="#DejaVuSans-69" x="39.208984"/>
      <use xlink:href="#DejaVuSans-6c" x="66.992188"/>
      <use xlink:href="#DejaVuSans-65" x="94.775391"/>
      <use xlink:href="#DejaVuSans-73" x="156.298828"/>
      <use xlink:href="#DejaVuSans-30" x="208.398438"/>
     </g>
    </g>
    <g id="patch_21">
     <path d="M 214.687284 16.861498 
L 231.347284 16.861498 
L 231.347284 11.030498 
L 214.687284 11.030498 
z
" style="fill: #d62728; stroke: #d62728; stroke-linejoin: miter"/>
    </g>
    <g id="text_4">
     <!-- tiles1 -->
     <g style="fill: #d62728" transform="translate(238.011284 16.861498) scale(0.0833 -0.0833)">
      <defs>
       <path id="DejaVuSans-31" d="M 794 531 
L 1825 531 
L 1825 4091 
L 703 3866 
L 703 4441 
L 1819 4666 
L 2450 4666 
L 2450 531 
L 3481 531 
L 3481 0 
L 794 0 
L 794 531 
z
" transform="scale(0.015625)"/>
      </defs>
      <use xlink:href="#DejaVuSans-74"/>
      <use xlink:href="#DejaVuSans-69" x="39.208984"/>
      <use xlink:href="#DejaVuSans-6c" x="66.992188"/>
      <use xlink:href="#DejaVuSans-65" x="94.775391"/>
      <use xlink:href="#DejaVuSans-73" x="156.298828"/>
      <use xlink:href="#DejaVuSans-31" x="208.398438"/>
     </g>
    </g>
    <g id="patch_22">
     <path d="M 277.330186 16.861498 
L 293.990186 16.861498 
L 293.990186 11.030498 
L 277.330186 11.030498 
z
" style="fill: #ff9896; stroke: #000000; stroke-linejoin: miter"/>
    </g>
    <g id="text_5">
     <!-- paths -->
     <g style="fill: #ff9896" transform="translate(300.654186 16.861498) scale(0.0833 -0.0833)">
      <defs>
       <path id="DejaVuSans-70" d="M 1159 525 
L 1159 -1331 
L 581 -1331 
L 581 3500 
L 1159 3500 
L 1159 2969 
Q 1341 3281 1617 3432 
Q 1894 3584 2278 3584 
Q 2916 3584 3314 3078 
Q 3713 2572 3713 1747 
Q 3713 922 3314 415 
Q 2916 -91 2278 -91 
Q 1894 -91 1617 61 
Q 1341 213 1159 525 
z
M 3116 1747 
Q 3116 2381 2855 2742 
Q 2594 3103 2138 3103 
Q 1681 3103 1420 2742 
Q 1159 2381 1159 1747 
Q 1159 1113 1420 752 
Q 1681 391 2138 391 
Q 2594 391 2855 752 
Q 3116 1113 3116 1747 
z
" transform="scale(0.015625)"/>
      </defs>
      <use xlink:href="#DejaVuSans-70"/>
      <use xlink:href="#DejaVuSans-61" x="63.476562"/>
      <use xlink:href="#DejaVuSans-74" x="124.755859"/>
      <use xlink:href="#DejaVuSans-68" x="163.964844"/>
      <use xlink:href="#DejaVuSans-73" x="227.34375"/>
     </g>
    </g>
    <g id="patch_23">
     <path d="M 340.59133 16.861498 
L 357.25133 16.861498 
L 357.25133 11.030498 
L 340.59133 11.030498 
z
" style="fill: #ffffff; stroke: #ffffff; stroke-linejoin: miter"/>
    </g>
    <g id="text_6">
     <!-- topware -->
     <g style="fill: #ffffff" transform="translate(363.91533 16.861498) scale(0.0833 -0.0833)">
      <defs>
       <path id="DejaVuSans-77" d="M 269 3500 
L 844 3500 
L 1563 769 
L 2278 3500 
L 2956 3500 
L 3675 769 
L 4391 3500 
L 4966 3500 
L 4050 0 
L 3372 0 
L 2619 2869 
L 1863 0 
L 1184 0 
L 269 3500 
z
" transform="scale(0.015625)"/>
      </defs>
      <use xlink:href="#DejaVuSans-74"/>
      <use xlink:href="#DejaVuSans-6f" x="39.208984"/>
      <use xlink:href="#DejaVuSans-70" x="100.390625"/>
      <use xlink:href="#DejaVuSans-77" x="163.867188"/>
      <use xlink:href="#DejaVuSans-61" x="245.654297"/>
      <use xlink:href="#DejaVuSans-72" x="306.933594"/>
      <use xlink:href="#DejaVuSans-65" x="345.796875"/>
     </g>
    </g>
    <g id="patch_24">
     <path d="M 414.505762 16.861498 
L 431.165762 16.861498 
L 431.165762 11.030498 
L 414.505762 11.030498 
z
" style="fill: #c5b0d5; stroke: #c5b0d5; stroke-linejoin: miter"/>
    </g>
    <g id="text_7">
     <!-- cities -->
     <g style="fill: #c5b0d5" transform="translate(437.829762 16.861498) scale(0.0833 -0.0833)">
      <defs>
       <path id="DejaVuSans-63" d="M 3122 3366 
L 3122 2828 
Q 2878 2963 2633 3030 
Q 2388 3097 2138 3097 
Q 1578 3097 1268 2742 
Q 959 2388 959 1747 
Q 959 1106 1268 751 
Q 1578 397 2138 397 
Q 2388 397 2633 464 
Q 2878 531 3122 666 
L 3122 134 
Q 2881 22 2623 -34 
Q 2366 -91 2075 -91 
Q 1284 -91 818 406 
Q 353 903 353 1747 
Q 353 2603 823 3093 
Q 1294 3584 2113 3584 
Q 2378 3584 2631 3529 
Q 2884 3475 3122 3366 
z
" transform="scale(0.015625)"/>
      </defs>
      <use xlink:href="#DejaVuSans-63"/>
      <use xlink:href="#DejaVuSans-69" x="54.980469"/>
      <use xlink:href="#DejaVuSans-74" x="82.763672"/>
      <use xlink:href="#DejaVuSans-69" x="121.972656"/>
      <use xlink:href="#DejaVuSans-65" x="149.755859"/>
      <use xlink:href="#DejaVuSans-73" x="211.279297"/>
     </g>
    </g>
    <g id="patch_25">
     <path d="M 476.4289 16.861498 
L 493.0889 16.861498 
L 493.0889 11.030498 
L 476.4289 11.030498 
z
" style="fill: #ffffff; stroke: #ffffff; stroke-linejoin: miter"/>
    </g>
    <g id="text_8">
     <!-- unknown -->
     <g style="fill: #ffffff" transform="translate(499.7529 16.861498) scale(0.0833 -0.0833)">
      <defs>
       <path id="DejaVuSans-75" d="M 544 1381 
L 544 3500 
L 1119 3500 
L 1119 1403 
Q 1119 906 1312 657 
Q 1506 409 1894 409 
Q 2359 409 2629 706 
Q 2900 1003 2900 1516 
L 2900 3500 
L 3475 3500 
L 3475 0 
L 2900 0 
L 2900 538 
Q 2691 219 2414 64 
Q 2138 -91 1772 -91 
Q 1169 -91 856 284 
Q 544 659 544 1381 
z
M 1991 3584 
L 1991 3584 
z
" transform="scale(0.015625)"/>
       <path id="DejaVuSans-6e" d="M 3513 2113 
L 3513 0 
L 2938 0 
L 2938 2094 
Q 2938 2591 2744 2837 
Q 2550 3084 2163 3084 
Q 1697 3084 1428 2787 
Q 1159 2491 1159 1978 
L 1159 0 
L 581 0 
L 581 3500 
L 1159 3500 
L 1159 2956 
Q 1366 3272 1645 3428 
Q 1925 3584 2291 3584 
Q 2894 3584 3203 3211 
Q 3513 2838 3513 2113 
z
" transform="scale(0.015625)"/>
       <path id="DejaVuSans-6b" d="M 581 4863 
L 1159 4863 
L 1159 1991 
L 2875 3500 
L 3609 3500 
L 1753 1863 
L 3688 0 
L 2938 0 
L 1159 1709 
L 1159 0 
L 581 0 
L 581 4863 
z
" transform="scale(0.015625)"/>
      </defs>
      <use xlink:href="#DejaVuSans-75"/>
      <use xlink:href="#DejaVuSans-6e" x="63.378906"/>
      <use xlink:href="#DejaVuSans-6b" x="126.757812"/>
      <use xlink:href="#DejaVuSans-6e" x="184.667969"/>
      <use xlink:href="#DejaVuSans-6f" x="248.046875"/>
      <use xlink:href="#DejaVuSans-77" x="309.228516"/>
      <use xlink:href="#DejaVuSans-6e" x="391.015625"/>
     </g>
    </g>
    <g id="patch_26">
     <path d="M 554.262337 16.861498 
L 570.922337 16.861498 
L 570.922337 11.030498 
L 554.262337 11.030498 
z
" style="fill: #c49c94; stroke: #c49c94; stroke-linejoin: miter"/>
    </g>
    <g id="text_9">
     <!-- citysigns -->
     <g style="fill: #c49c94" transform="translate(577.586337 16.861498) scale(0.0833 -0.0833)">
      <defs>
       <path id="DejaVuSans-79" d="M 2059 -325 
Q 1816 -950 1584 -1140 
Q 1353 -1331 966 -1331 
L 506 -1331 
L 506 -850 
L 844 -850 
Q 1081 -850 1212 -737 
Q 1344 -625 1503 -206 
L 1606 56 
L 191 3500 
L 800 3500 
L 1894 763 
L 2988 3500 
L 3597 3500 
L 2059 -325 
z
" transform="scale(0.015625)"/>
       <path id="DejaVuSans-67" d="M 2906 1791 
Q 2906 2416 2648 2759 
Q 2391 3103 1925 3103 
Q 1463 3103 1205 2759 
Q 947 2416 947 1791 
Q 947 1169 1205 825 
Q 1463 481 1925 481 
Q 2391 481 2648 825 
Q 2906 1169 2906 1791 
z
M 3481 434 
Q 3481 -459 3084 -895 
Q 2688 -1331 1869 -1331 
Q 1566 -1331 1297 -1286 
Q 1028 -1241 775 -1147 
L 775 -588 
Q 1028 -725 1275 -790 
Q 1522 -856 1778 -856 
Q 2344 -856 2625 -561 
Q 2906 -266 2906 331 
L 2906 616 
Q 2728 306 2450 153 
Q 2172 0 1784 0 
Q 1141 0 747 490 
Q 353 981 353 1791 
Q 353 2603 747 3093 
Q 1141 3584 1784 3584 
Q 2172 3584 2450 3431 
Q 2728 3278 2906 2969 
L 2906 3500 
L 3481 3500 
L 3481 434 
z
" transform="scale(0.015625)"/>
      </defs>
      <use xlink:href="#DejaVuSans-63"/>
      <use xlink:href="#DejaVuSans-69" x="54.980469"/>
      <use xlink:href="#DejaVuSans-74" x="82.763672"/>
      <use xlink:href="#DejaVuSans-79" x="121.972656"/>
      <use xlink:href="#DejaVuSans-73" x="181.152344"/>
      <use xlink:href="#DejaVuSans-69" x="233.251953"/>
      <use xlink:href="#DejaVuSans-67" x="261.035156"/>
      <use xlink:href="#DejaVuSans-6e" x="324.511719"/>
      <use xlink:href="#DejaVuSans-73" x="387.890625"/>
     </g>
    </g>
    <g id="patch_27">
     <path d="M 630.897036 16.861498 
L 647.557036 16.861498 
L 647.557036 11.030498 
L 630.897036 11.030498 
z
" style="fill: #e377c2; stroke: #e377c2; stroke-linejoin: miter"/>
    </g>
    <g id="text_10">
     <!-- paths -->
     <g style="fill: #e377c2" transform="translate(654.221036 16.861498) scale(0.0833 -0.0833)">
      <use xlink:href="#DejaVuSans-70"/>
      <use xlink:href="#DejaVuSans-61" x="63.476562"/>
      <use xlink:href="#DejaVuSans-74" x="124.755859"/>
      <use xlink:href="#DejaVuSans-68" x="163.964844"/>
      <use xlink:href="#DejaVuSans-73" x="227.34375"/>
     </g>
    </g>
    <g id="patch_28">
     <path d="M 694.15818 16.861498 
L 710.81818 16.861498 
L 710.81818 11.030498 
L 694.15818 11.030498 
z
" style="fill: #f7b6d2; stroke: #f7b6d2; stroke-linejoin: miter"/>
    </g>
    <g id="text_11">
     <!-- tiles2 -->
     <g style="fill: #f7b6d2" transform="translate(717.48218 16.861498) scale(0.0833 -0.0833)">
      <defs>
       <path id="DejaVuSans-32" d="M 1228 531 
L 3431 531 
L 3431 0 
L 469 0 
L 469 531 
Q 828 903 1448 1529 
Q 2069 2156 2228 2338 
Q 2531 2678 2651 2914 
Q 2772 3150 2772 3378 
Q 2772 3750 2511 3984 
Q 2250 4219 1831 4219 
Q 1534 4219 1204 4116 
Q 875 4013 500 3803 
L 500 4441 
Q 881 4594 1212 4672 
Q 1544 4750 1819 4750 
Q 2544 4750 2975 4387 
Q 3406 4025 3406 3419 
Q 3406 3131 3298 2873 
Q 3191 2616 2906 2266 
Q 2828 2175 2409 1742 
Q 1991 1309 1228 531 
z
" transform="scale(0.015625)"/>
      </defs>
      <use xlink:href="#DejaVuSans-74"/>
      <use xlink:href="#DejaVuSans-69" x="39.208984"/>
      <use xlink:href="#DejaVuSans-6c" x="66.992188"/>
      <use xlink:href="#DejaVuSans-65" x="94.775391"/>
      <use xlink:href="#DejaVuSans-73" x="156.298828"/>
      <use xlink:href="#DejaVuSans-32" x="208.398438"/>
     </g>
    </g>
    <g id="patch_29">
     <path d="M 756.801081 16.861498 
L 773.461081 16.861498 
L 773.461081 11.030498 
L 756.801081 11.030498 
z
" style="fill: #7f7f7f; stroke: #7f7f7f; stroke-linejoin: miter"/>
    </g>
    <g id="text_12">
     <!-- tiles3 -->
     <g style="fill: #7f7f7f" transform="translate(780.125081 16.861498) scale(0.0833 -0.0833)">
      <defs>
       <path id="DejaVuSans-33" d="M 2597 2516 
Q 3050 2419 3304 2112 
Q 3559 1806 3559 1356 
Q 3559 666 3084 287 
Q 2609 -91 1734 -91 
Q 1441 -91 1130 -33 
Q 819 25 488 141 
L 488 750 
Q 750 597 1062 519 
Q 1375 441 1716 441 
Q 2309 441 2620 675 
Q 2931 909 2931 1356 
Q 2931 1769 2642 2001 
Q 2353 2234 1838 2234 
L 1294 2234 
L 1294 2753 
L 1863 2753 
Q 2328 2753 2575 2939 
Q 2822 3125 2822 3475 
Q 2822 3834 2567 4026 
Q 2313 4219 1838 4219 
Q 1578 4219 1281 4162 
Q 984 4106 628 3988 
L 628 4550 
Q 988 4650 1302 4700 
Q 1616 4750 1894 4750 
Q 2613 4750 3031 4423 
Q 3450 4097 3450 3541 
Q 3450 3153 3228 2886 
Q 3006 2619 2597 2516 
z
" transform="scale(0.015625)"/>
      </defs>
      <use xlink:href="#DejaVuSans-74"/>
      <use xlink:href="#DejaVuSans-69" x="39.208984"/>
      <use xlink:href="#DejaVuSans-6c" x="66.992188"/>
      <use xlink:href="#DejaVuSans-65" x="94.775391"/>
      <use xlink:href="#DejaVuSans-73" x="156.298828"/>
      <use xlink:href="#DejaVuSans-33" x="208.398438"/>
     </g>
    </g>
    <g id="patch_30">
     <path d="M 819.443983 16.861498 
L 836.103983 16.861498 
L 836.103983 11.030498 
L 819.443983 11.030498 
z
" style="fill: #ffffff; stroke: #ffffff; stroke-linejoin: miter"/>
    </g>
    <g id="text_13">
     <!-- unknown -->
     <g style="fill: #ffffff" transform="translate(842.767983 16.861498) scale(0.0833 -0.0833)">
      <use xlink:href="#DejaVuSans-75"/>
      <use xlink:href="#DejaVuSans-6e" x="63.378906"/>
      <use xlink:href="#DejaVuSans-6b" x="126.757812"/>
      <use xlink:href="#DejaVuSans-6e" x="184.667969"/>
      <use xlink:href="#DejaVuSans-6f" x="248.046875"/>
      <use xlink:href="#DejaVuSans-77" x="309.228516"/>
      <use xlink:href="#DejaVuSans-6e" x="391.015625"/>
     </g>
    </g>
    <g id="patch_31">
     <path d="M 897.27742 16.861498 
L 913.93742 16.861498 
L 913.93742 11.030498 
L 897.27742 11.030498 
z
" style="fill: #ffffff; stroke: #ffffff; stroke-linejoin: miter"/>
    </g>
    <g id="text_14">
     <!-- unknown -->
     <g style="fill: #ffffff" transform="translate(920.60142 16.861498) scale(0.0833 -0.0833)">
      <use xlink:href="#DejaVuSans-75"/>
      <use xlink:href="#DejaVuSans-6e" x="63.378906"/>
      <use xlink:href="#DejaVuSans-6b" x="126.757812"/>
      <use xlink:href="#DejaVuSans-6e" x="184.667969"/>
      <use xlink:href="#DejaVuSans-6f" x="248.046875"/>
      <use xlink:href="#DejaVuSans-77" x="309.228516"/>
      <use xlink:href="#DejaVuSans-6e" x="391.015625"/>
     </g>
    </g>
   </g>
  </g>
 </g>
 <defs>
  <clipPath id="p92e1c09d60">
   <rect x="7.2" y="26.090878" width="958.235" height="26.711"/>
  </clipPath>
 </defs>
</svg>
