<?xml version="1.0" encoding="utf-8" standalone="no"?>
<!DOCTYPE svg PUBLIC "-//W3C//DTD SVG 1.1//EN"
  "http://www.w3.org/Graphics/SVG/1.1/DTD/svg11.dtd">
<svg xmlns:xlink="http://www.w3.org/1999/xlink" width="973.796036pt" height="65.083284pt" viewBox="0 0 973.796036 65.083284" xmlns="http://www.w3.org/2000/svg" version="1.1">
 <metadata>
  <rdf:RDF xmlns:dc="http://purl.org/dc/elements/1.1/" xmlns:cc="http://creativecommons.org/ns#" xmlns:rdf="http://www.w3.org/1999/02/22-rdf-syntax-ns#">
   <cc:Work>
    <dc:type rdf:resource="http://purl.org/dc/dcmitype/StillImage"/>
    <dc:date>2025-04-18T19:52:12.308018</dc:date>
    <dc:format>image/svg+xml</dc:format>
    <dc:creator>
     <cc:Agent>
      <dc:title>Matplotlib v3.6.3, https://matplotlib.org/</dc:title>
     </cc:Agent>
    </dc:creator>
   </cc:Work>
  </rdf:RDF>
 </metadata>
 <defs>
  <style type="text/css">*{stroke-linejoin: round; stroke-linecap: butt}</style>
 </defs>
 <g id="figure_1">
  <g id="patch_1">
   <path d="M 0 65.083284 
L 973.796036 65.083284 
L 973.796036 0 
L 0 0 
z
" style="fill: #ffffff"/>
  </g>
  <g id="axes_1">
   <g id="patch_2">
    <path d="M 7.2 54.383284 
L 960.755 54.383284 
L 960.755 41.917284 
L 7.2 41.917284 
z
" style="fill: #ffffff"/>
   </g>
   <g id="patch_3">
    <path d="M 7.2 53.816648 
L 7.200024 53.816648 
L 7.200024 42.483921 
L 7.2 42.483921 
z
" clip-path="url(#p0141037b93)" style="fill: #ff0000; stroke: #ff0000; stroke-linejoin: miter"/>
   </g>
   <g id="patch_4">
    <path d="M 7.200024 53.816648 
L 7.667318 53.816648 
L 7.667318 42.483921 
L 7.200024 42.483921 
z
" clip-path="url(#p0141037b93)" style="fill: #0000ff; stroke: #0000ff; stroke-linejoin: miter"/>
   </g>
   <g id="patch_5">
    <path d="M 7.667318 53.816648 
L 8.782417 53.816648 
L 8.782417 42.483921 
L 7.667318 42.483921 
z
" clip-path="url(#p0141037b93)" style="fill: #267d40; stroke: #267d40; stroke-linejoin: miter"/>
   </g>
   <g id="patch_6">
    <path d="M 8.782417 53.816648 
L 22.175464 53.816648 
L 22.175464 42.483921 
L 8.782417 42.483921 
z
" clip-path="url(#p0141037b93)" style="fill: #31a354; stroke: #31a354; stroke-linejoin: miter"/>
   </g>
   <g id="patch_7">
    <path d="M 22.175464 53.816648 
L 23.015045 53.816648 
L 23.015045 42.483921 
L 22.175464 42.483921 
z
" clip-path="url(#p0141037b93)" style="fill: #ffffff; stroke: #ffffff; stroke-linejoin: miter"/>
   </g>
   <g id="patch_8">
    <path d="M 23.015045 53.816648 
L 25.929232 53.816648 
L 25.929232 42.483921 
L 23.015045 42.483921 
z
" clip-path="url(#p0141037b93)" style="fill: #ffffff; stroke: #ffffff; stroke-linejoin: miter"/>
   </g>
   <g id="patch_9">
    <path d="M 25.929232 53.816648 
L 27.19685 53.816648 
L 27.19685 42.483921 
L 25.929232 42.483921 
z
" clip-path="url(#p0141037b93)" style="fill: #974ea3; stroke: #974ea3; stroke-linejoin: miter"/>
   </g>
   <g id="patch_10">
    <path d="M 27.19685 53.816648 
L 27.197418 53.816648 
L 27.197418 42.483921 
L 27.19685 42.483921 
z
" clip-path="url(#p0141037b93)" style="fill: #ffffff; stroke: #ffffff; stroke-linejoin: miter"/>
   </g>
   <g id="patch_11">
    <path d="M 27.197418 53.816648 
L 28.64731 53.816648 
L 28.64731 42.483921 
L 27.197418 42.483921 
z
" clip-path="url(#p0141037b93)" style="fill: #ffffff; stroke: #ffffff; stroke-linejoin: miter"/>
   </g>
   <g id="patch_12">
    <path d="M 28.64731 53.816648 
L 31.14819 53.816648 
L 31.14819 42.483921 
L 28.64731 42.483921 
z
" clip-path="url(#p0141037b93)" style="fill: #6baed6; stroke: #6baed6; stroke-linejoin: miter"/>
   </g>
   <g id="patch_13">
    <path d="M 31.14819 53.816648 
L 135.589809 53.816648 
L 135.589809 42.483921 
L 31.14819 42.483921 
z
" clip-path="url(#p0141037b93)" style="fill: #73c475; stroke: #73c475; stroke-linejoin: miter"/>
   </g>
   <g id="patch_14">
    <path d="M 135.589809 53.816648 
L 960.713192 53.816648 
L 960.713192 42.483921 
L 135.589809 42.483921 
z
" clip-path="url(#p0141037b93)" style="fill: #a1d99b; stroke: #000000; stroke-linejoin: miter"/>
   </g>
   <g id="patch_15">
    <path d="M 960.713192 53.816648 
L 960.741699 53.816648 
L 960.741699 42.483921 
L 960.713192 42.483921 
z
" clip-path="url(#p0141037b93)" style="fill: #ffffff; stroke: #ffffff; stroke-linejoin: miter"/>
   </g>
   <g id="patch_16">
    <path d="M 960.741699 53.816648 
L 960.755 53.816648 
L 960.755 42.483921 
L 960.741699 42.483921 
z
" clip-path="url(#p0141037b93)" style="fill: #ffffff; stroke: #ffffff; stroke-linejoin: miter"/>
   </g>
   <g id="patch_17">
    <path d="M 7.2 54.383284 
L 960.755 54.383284 
" style="fill: none; stroke: #000000; stroke-width: 0.8; stroke-linejoin: miter; stroke-linecap: square"/>
   </g>
   <g id="legend_1">
    <g id="text_1">
     <!-- dsatnord.mp: 641,286,321  of  644,833,911  bytes  known  (99.45%) -->
     <g transform="translate(221.611143 19.294813) scale(0.13 -0.13)">
      <defs>
       <path id="EurostileExtended-Roman-64" d="M 4320 0 
L 3872 0 
L 3872 461 
Q 3738 141 3440 45 
Q 3142 -51 2694 -51 
L 2278 -45 
Q 1235 -45 832 214 
Q 429 474 429 1466 
Q 429 2400 765 2723 
Q 1101 3046 2035 3046 
L 2387 3046 
Q 2906 3046 3101 3027 
Q 3296 3008 3443 2947 
Q 3590 2886 3692 2777 
Q 3795 2669 3872 2522 
L 3872 4307 
L 4320 4307 
L 4320 0 
z
M 2381 352 
Q 3238 352 3552 541 
Q 3866 730 3866 1491 
Q 3866 2016 3734 2272 
Q 3603 2528 3283 2576 
Q 2963 2624 2723 2637 
Q 2483 2650 2259 2650 
Q 1446 2650 1177 2458 
Q 909 2266 909 1453 
Q 909 870 1085 620 
Q 1261 371 1811 371 
L 2381 352 
z
" transform="scale(0.015625)"/>
       <path id="EurostileExtended-Roman-73" d="M 3130 2630 
L 2246 2656 
Q 1965 2656 1789 2649 
Q 1613 2643 1392 2611 
Q 1171 2579 1040 2492 
Q 909 2406 909 2202 
Q 909 1926 1046 1840 
Q 1184 1754 1478 1754 
L 2253 1734 
L 3091 1734 
Q 3648 1734 3917 1558 
Q 4186 1382 4186 864 
Q 4186 269 3869 118 
Q 3552 -32 2893 -32 
L 2054 -45 
Q 1670 -45 1468 -35 
Q 1267 -26 969 35 
Q 672 96 531 297 
Q 390 499 390 883 
L 397 1018 
L 851 1018 
L 858 947 
Q 858 640 986 525 
Q 1114 410 1434 378 
L 2221 352 
L 2355 352 
L 2470 352 
Q 2867 352 3180 387 
Q 3494 422 3600 502 
Q 3706 582 3706 794 
Q 3706 1114 3549 1229 
Q 3392 1344 3046 1344 
L 2234 1350 
L 1459 1350 
Q 954 1350 691 1510 
Q 429 1670 429 2150 
Q 429 2598 685 2806 
Q 941 3014 1395 3014 
L 2246 3053 
Q 2483 3053 2707 3049 
Q 2931 3046 3213 3021 
Q 3680 3021 3875 2825 
Q 4070 2630 4070 2170 
L 3622 2170 
Q 3597 2426 3504 2512 
Q 3411 2598 3130 2630 
z
" transform="scale(0.015625)"/>
       <path id="EurostileExtended-Roman-61" d="M 3603 352 
Q 3488 154 3325 74 
Q 3162 -6 2912 -26 
L 2086 -45 
L 1696 -45 
Q 902 -45 643 182 
Q 384 410 384 851 
Q 384 1338 563 1536 
Q 742 1734 1065 1766 
Q 1389 1798 1638 1804 
Q 1888 1811 2106 1811 
L 2950 1786 
Q 3181 1786 3321 1715 
Q 3462 1645 3603 1453 
L 3603 1773 
Q 3603 2048 3558 2230 
Q 3514 2413 3360 2515 
Q 3206 2618 2838 2637 
Q 2470 2656 2291 2656 
Q 2074 2656 1869 2653 
Q 1664 2650 1424 2618 
Q 1184 2586 1094 2464 
Q 1005 2342 1005 2106 
L 518 2106 
Q 518 2586 726 2778 
Q 934 2970 1353 3011 
Q 1773 3053 2125 3053 
Q 2560 3053 2848 3037 
Q 3136 3021 3469 2931 
Q 3802 2842 3926 2576 
Q 4051 2310 4051 1875 
L 4051 0 
L 3603 0 
L 3603 352 
z
M 2093 352 
L 2221 352 
Q 2547 352 2796 368 
Q 3046 384 3324 461 
Q 3603 538 3603 896 
Q 3603 1203 3414 1289 
Q 3226 1376 3005 1398 
Q 2784 1421 2509 1421 
L 2112 1414 
Q 1651 1414 1462 1395 
Q 1274 1376 1120 1318 
Q 966 1261 915 1142 
Q 864 1024 864 851 
Q 864 621 1001 493 
Q 1139 365 1568 365 
L 2093 352 
z
" transform="scale(0.015625)"/>
       <path id="EurostileExtended-Roman-74" d="M 3174 2624 
L 1094 2624 
L 1094 1178 
Q 1094 672 1267 512 
Q 1440 352 1946 352 
Q 2406 352 2624 464 
Q 2842 576 2842 986 
L 2835 1325 
L 3251 1325 
Q 3251 493 3049 224 
Q 2848 -45 1997 -45 
Q 1293 -45 969 137 
Q 646 320 646 966 
L 646 1178 
L 646 2624 
L -83 2624 
L -83 3008 
L 646 3008 
L 646 3686 
L 1094 3686 
L 1094 3008 
L 3174 3008 
L 3174 2624 
z
" transform="scale(0.015625)"/>
       <path id="EurostileExtended-Roman-6e" d="M 960 2387 
Q 1107 2822 1452 2937 
Q 1798 3053 2374 3053 
L 2432 3053 
Q 2906 3053 3222 3001 
Q 3539 2950 3766 2771 
Q 3994 2592 4054 2368 
Q 4115 2144 4115 1811 
L 4115 0 
L 3667 0 
L 3667 1766 
Q 3667 2330 3366 2493 
Q 3066 2656 2432 2656 
Q 1709 2656 1334 2493 
Q 960 2330 960 1696 
L 960 0 
L 512 0 
L 512 3008 
L 960 3008 
L 960 2387 
z
" transform="scale(0.015625)"/>
       <path id="EurostileExtended-Roman-6f" d="M 2368 3046 
Q 3136 3046 3520 2969 
Q 3904 2893 4137 2579 
Q 4371 2266 4371 1562 
Q 4371 493 3961 224 
Q 3552 -45 2362 -45 
Q 1306 -45 864 217 
Q 422 480 422 1472 
Q 422 2176 627 2550 
Q 832 2925 1267 2979 
Q 1702 3034 1900 3040 
Q 2099 3046 2368 3046 
z
M 2368 352 
Q 3213 352 3555 499 
Q 3898 646 3898 1363 
Q 3898 1920 3779 2233 
Q 3661 2547 3325 2592 
Q 2989 2637 2787 2643 
Q 2586 2650 2310 2650 
L 2176 2650 
Q 1434 2650 1168 2451 
Q 902 2253 902 1504 
Q 902 787 1177 566 
Q 1453 346 2195 346 
L 2368 352 
z
" transform="scale(0.015625)"/>
       <path id="EurostileExtended-Roman-72" d="M 960 2477 
Q 1050 2746 1309 2899 
Q 1568 3053 2157 3053 
Q 3014 3053 3356 2838 
Q 3699 2624 3699 1824 
L 3693 1683 
L 3251 1683 
Q 3251 2253 3075 2454 
Q 2899 2656 2323 2656 
L 2170 2656 
Q 1517 2656 1238 2473 
Q 960 2291 960 1683 
L 960 0 
L 512 0 
L 512 3008 
L 960 3008 
L 960 2477 
z
" transform="scale(0.015625)"/>
       <path id="EurostileExtended-Roman-2e" d="M 1530 0 
L 890 0 
L 890 698 
L 1530 698 
L 1530 0 
z
" transform="scale(0.015625)"/>
       <path id="EurostileExtended-Roman-6d" d="M 960 2528 
Q 1088 2861 1401 2957 
Q 1715 3053 2182 3053 
L 2278 3053 
Q 2893 3053 3261 2947 
Q 3629 2842 3795 2419 
Q 3968 2835 4313 2944 
Q 4659 3053 5248 3053 
Q 6086 3053 6496 2819 
Q 6906 2586 6906 1811 
L 6906 0 
L 6458 0 
L 6458 1811 
Q 6458 2342 6182 2499 
Q 5907 2656 5306 2656 
L 5152 2656 
Q 4416 2656 4173 2441 
Q 3930 2227 3930 1811 
L 3930 0 
L 3482 0 
L 3482 1811 
Q 3482 2240 3264 2448 
Q 3046 2656 2266 2656 
Q 1434 2656 1197 2425 
Q 960 2195 960 1715 
L 960 0 
L 512 0 
L 512 3008 
L 960 3008 
L 960 2528 
z
" transform="scale(0.015625)"/>
       <path id="EurostileExtended-Roman-70" d="M 960 2528 
Q 1114 2848 1379 2947 
Q 1645 3046 2074 3046 
L 2547 3046 
Q 3590 3046 3996 2771 
Q 4403 2496 4403 1510 
Q 4403 704 4140 336 
Q 3878 -32 3104 -32 
L 2554 -45 
L 1907 -38 
Q 1536 -38 1302 70 
Q 1069 179 960 499 
L 960 -1299 
L 512 -1299 
L 512 3008 
L 960 3008 
L 960 2528 
z
M 3923 1485 
Q 3923 2291 3664 2470 
Q 3405 2650 2541 2650 
L 2387 2650 
Q 2080 2650 1904 2640 
Q 1728 2630 1453 2569 
Q 1178 2509 1072 2240 
Q 966 1971 966 1491 
Q 966 672 1286 512 
Q 1606 352 2547 352 
Q 3373 352 3648 537 
Q 3923 723 3923 1485 
z
" transform="scale(0.015625)"/>
       <path id="EurostileExtended-Roman-3a" d="M 1530 2310 
L 890 2310 
L 890 3008 
L 1530 3008 
L 1530 2310 
z
M 1530 0 
L 890 0 
L 890 698 
L 1530 698 
L 1530 0 
z
" transform="scale(0.015625)"/>
       <path id="EurostileExtended-Roman-20" transform="scale(0.015625)"/>
       <path id="EurostileExtended-Roman-36" d="M 3834 3821 
Q 3597 3846 3373 3852 
Q 3149 3859 2854 3859 
L 2720 3859 
L 2227 3866 
Q 2035 3866 1881 3859 
Q 1728 3853 1465 3814 
Q 1203 3776 1036 3577 
Q 870 3379 870 2694 
L 870 1952 
Q 1018 2330 1254 2422 
Q 1491 2515 1965 2515 
L 2694 2541 
L 3206 2547 
Q 3578 2547 3731 2537 
Q 3885 2528 4275 2477 
Q 4666 2426 4848 2160 
Q 5030 1894 5030 1325 
Q 5030 486 4678 224 
Q 4326 -38 3430 -38 
L 2643 -45 
L 2176 -45 
Q 1043 -45 697 268 
Q 352 582 352 1203 
L 346 2221 
L 371 3238 
Q 371 3699 694 3984 
Q 1018 4269 1491 4269 
Q 1766 4294 2016 4300 
Q 2266 4307 2592 4307 
L 2746 4307 
L 3763 4275 
Q 4320 4275 4653 4016 
Q 4986 3757 4986 3206 
L 4986 3053 
L 4454 3053 
Q 4454 3456 4342 3619 
Q 4230 3782 3834 3821 
z
M 3072 403 
L 3168 403 
Q 3430 403 3814 444 
Q 4198 486 4348 681 
Q 4499 877 4499 1312 
Q 4499 1766 4326 1920 
Q 4154 2074 3693 2074 
L 2694 2093 
L 1862 2074 
Q 1344 2074 1104 1891 
Q 864 1709 864 1210 
Q 864 806 1062 640 
Q 1261 474 1683 435 
L 3072 403 
z
" transform="scale(0.015625)"/>
       <path id="EurostileExtended-Roman-34" d="M 5107 928 
L 4429 928 
L 4429 0 
L 3923 0 
L 3923 928 
L 269 928 
L 269 1594 
L 3706 4269 
L 4429 4269 
L 4429 1363 
L 5107 1363 
L 5107 928 
z
M 730 1363 
L 3923 1363 
L 3923 3866 
L 730 1363 
z
" transform="scale(0.015625)"/>
       <path id="EurostileExtended-Roman-31" d="M 787 2886 
L 2560 4269 
L 3219 4269 
L 3219 0 
L 2714 0 
L 2714 3859 
L 1082 2554 
L 787 2886 
z
" transform="scale(0.015625)"/>
       <path id="EurostileExtended-Roman-2c" d="M 1568 51 
Q 1568 -685 845 -685 
L 845 -346 
Q 998 -314 1078 -256 
Q 1158 -198 1158 -70 
L 1152 0 
L 928 0 
L 928 717 
L 1568 717 
L 1568 51 
z
" transform="scale(0.015625)"/>
       <path id="EurostileExtended-Roman-32" d="M 5094 0 
L 378 0 
L 378 179 
Q 378 1171 605 1580 
Q 832 1990 1709 1990 
L 2662 2048 
Q 2950 2048 3193 2064 
Q 3437 2080 3875 2147 
Q 4314 2214 4442 2390 
Q 4570 2566 4570 2982 
Q 4570 3450 4374 3638 
Q 4179 3827 3699 3827 
L 2650 3859 
L 1830 3834 
Q 1331 3834 1129 3645 
Q 928 3456 928 2906 
L 922 2688 
L 422 2688 
Q 422 3501 611 3833 
Q 800 4166 1312 4227 
Q 1824 4288 2054 4297 
Q 2285 4307 2650 4307 
L 3149 4307 
Q 4192 4307 4646 4092 
Q 5101 3878 5101 2982 
Q 5101 2285 4806 1977 
Q 4512 1670 3802 1670 
L 2707 1594 
L 1805 1523 
Q 1203 1523 1046 1302 
Q 890 1082 890 442 
L 5094 442 
L 5094 0 
z
" transform="scale(0.015625)"/>
       <path id="EurostileExtended-Roman-38" d="M 3622 -45 
L 2618 -45 
L 1555 -38 
Q 896 -38 605 205 
Q 314 448 314 1094 
Q 314 1632 445 1849 
Q 576 2067 1062 2170 
Q 922 2208 781 2246 
Q 627 2304 531 2425 
Q 435 2547 409 2713 
Q 384 2880 384 3149 
Q 384 3814 681 4051 
Q 979 4288 1645 4288 
L 2733 4307 
Q 3046 4307 3340 4304 
Q 3635 4301 4089 4256 
Q 4544 4211 4774 3974 
Q 5005 3738 5005 3194 
Q 5005 2912 4957 2681 
Q 4909 2451 4784 2355 
Q 4659 2259 4550 2227 
Q 4442 2195 4269 2170 
Q 4749 2106 4905 1898 
Q 5062 1690 5062 1171 
Q 5062 435 4748 195 
Q 4435 -45 3622 -45 
z
M 2694 2400 
L 3846 2426 
Q 4474 2426 4474 3072 
Q 4474 3469 4352 3635 
Q 4230 3802 3846 3802 
L 2707 3827 
L 1555 3802 
Q 1210 3802 1059 3651 
Q 909 3501 909 3142 
Q 909 2746 1030 2582 
Q 1152 2419 1555 2419 
L 2694 2400 
z
M 2630 403 
L 2784 403 
L 2918 403 
Q 3398 403 3836 441 
Q 4275 480 4403 627 
Q 4531 774 4531 1171 
Q 4531 1658 4348 1805 
Q 4166 1952 3661 1952 
L 2694 1971 
L 1568 1946 
Q 1146 1946 995 1754 
Q 845 1562 845 1107 
Q 845 717 1062 569 
Q 1280 422 1696 422 
L 2630 403 
z
" transform="scale(0.015625)"/>
       <path id="EurostileExtended-Roman-33" d="M 3776 2387 
Q 4154 2387 4326 2540 
Q 4499 2694 4499 3053 
Q 4499 3418 4432 3629 
Q 4365 3840 3802 3840 
L 2925 3866 
L 2624 3859 
L 1766 3840 
Q 1446 3840 1222 3779 
Q 998 3718 928 3568 
Q 858 3418 842 3302 
Q 826 3187 826 3034 
L 826 2957 
L 320 2957 
Q 320 3603 473 3833 
Q 627 4064 924 4157 
Q 1222 4250 1564 4278 
Q 1907 4307 2285 4307 
L 2598 4307 
L 3872 4282 
Q 4486 4230 4758 4016 
Q 5030 3802 5030 3219 
Q 5030 2714 4924 2483 
Q 4819 2253 4384 2189 
Q 4826 2118 4957 1897 
Q 5088 1677 5088 1190 
Q 5088 326 4717 140 
Q 4346 -45 3366 -45 
L 2138 -45 
L 2042 -45 
Q 1677 -45 1187 16 
Q 698 77 496 358 
Q 294 640 294 1306 
L 800 1306 
Q 800 877 918 678 
Q 1037 480 1440 442 
L 2682 403 
L 3821 422 
Q 4301 422 4432 627 
Q 4563 832 4563 1331 
Q 4563 1702 4416 1824 
Q 4269 1946 3853 1946 
L 3808 1946 
L 2080 1946 
L 2080 2387 
L 3776 2387 
z
" transform="scale(0.015625)"/>
       <path id="EurostileExtended-Roman-66" d="M 2586 2618 
L 1075 2618 
L 1075 0 
L 627 0 
L 627 2618 
L -45 2618 
L -45 3002 
L 627 3002 
L 627 3258 
Q 627 3827 921 4060 
Q 1216 4294 1818 4294 
L 2586 4307 
L 2586 3923 
L 1971 3923 
Q 1498 3923 1286 3808 
Q 1075 3693 1075 3258 
L 1075 3002 
L 2586 3002 
L 2586 2618 
z
" transform="scale(0.015625)"/>
       <path id="EurostileExtended-Roman-39" d="M 2080 410 
L 2938 403 
L 3142 403 
L 3219 403 
Q 3315 403 3398 406 
Q 3482 410 3834 448 
Q 4186 486 4346 694 
Q 4506 902 4506 1363 
L 4512 1766 
L 4512 2374 
Q 4422 2029 4224 1891 
Q 4026 1754 3648 1754 
L 2688 1728 
L 2515 1728 
L 2368 1728 
Q 1869 1728 1353 1773 
Q 838 1818 592 2077 
Q 346 2336 346 2867 
Q 346 3482 534 3824 
Q 723 4166 1123 4224 
Q 1523 4282 1891 4294 
Q 2259 4307 2592 4307 
L 2784 4307 
L 3603 4294 
Q 4147 4294 4540 4099 
Q 4934 3904 4982 3549 
Q 5030 3194 5043 2944 
Q 5056 2694 5056 2458 
L 5050 2048 
L 5037 1229 
Q 5037 710 4784 384 
Q 4531 58 4128 16 
Q 3725 -26 3427 -35 
Q 3130 -45 2675 -45 
L 1312 19 
Q 826 70 614 390 
Q 403 710 403 1222 
L 922 1222 
Q 922 666 1187 538 
Q 1453 410 2080 410 
z
M 2714 2176 
L 3661 2208 
Q 4115 2208 4307 2393 
Q 4499 2579 4499 3034 
Q 4499 3494 4300 3664 
Q 4102 3834 3635 3834 
L 2746 3859 
L 2374 3866 
Q 2061 3866 1933 3856 
Q 1805 3846 1497 3801 
Q 1190 3757 1036 3577 
Q 883 3398 883 2995 
Q 883 2515 1043 2355 
Q 1203 2195 1690 2195 
L 2714 2176 
z
" transform="scale(0.015625)"/>
       <path id="EurostileExtended-Roman-62" d="M 960 2515 
Q 1094 2854 1408 2950 
Q 1722 3046 2189 3046 
L 2528 3046 
Q 3584 3046 3997 2771 
Q 4410 2496 4410 1498 
Q 4410 499 4006 227 
Q 3603 -45 2534 -45 
L 2144 -51 
Q 1683 -51 1414 41 
Q 1146 134 960 467 
L 960 0 
L 512 0 
L 512 4307 
L 960 4307 
L 960 2515 
z
M 2554 352 
L 2662 352 
Q 2995 352 3203 371 
Q 3411 390 3603 476 
Q 3795 563 3862 787 
Q 3930 1011 3930 1357 
L 3930 1485 
Q 3930 2016 3824 2288 
Q 3718 2560 3436 2598 
Q 3155 2637 2937 2643 
Q 2720 2650 2534 2650 
Q 2240 2650 2048 2640 
Q 1856 2630 1526 2588 
Q 1197 2547 1081 2272 
Q 966 1997 966 1459 
Q 966 1082 1040 835 
Q 1114 589 1338 489 
Q 1562 390 1853 371 
Q 2144 352 2554 352 
z
" transform="scale(0.015625)"/>
       <path id="EurostileExtended-Roman-79" d="M 3750 3008 
L 2080 -250 
Q 1741 -902 1478 -1164 
Q 1216 -1427 627 -1427 
L 397 -1421 
L 397 -1056 
L 525 -1062 
Q 992 -1062 1177 -832 
Q 1363 -602 1690 32 
L 1517 32 
L -173 3008 
L 346 3008 
L 1856 346 
L 3226 3008 
L 3750 3008 
z
" transform="scale(0.015625)"/>
       <path id="EurostileExtended-Roman-65" d="M 1504 410 
Q 1606 390 1830 371 
Q 2054 352 2362 352 
L 2605 352 
Q 2938 352 3130 371 
Q 3322 390 3475 457 
Q 3629 525 3699 633 
Q 3770 742 3782 902 
L 4256 902 
Q 4256 307 3779 131 
Q 3302 -45 2547 -45 
Q 1722 -45 1325 28 
Q 928 102 675 425 
Q 422 749 422 1498 
Q 422 2426 777 2742 
Q 1133 3059 2067 3059 
L 2374 3053 
Q 3098 3053 3466 2973 
Q 3834 2893 4048 2579 
Q 4262 2266 4262 1581 
L 4256 1427 
L 870 1427 
Q 870 986 992 739 
Q 1114 493 1504 410 
z
M 2560 2656 
L 2208 2656 
Q 1837 2656 1549 2614 
Q 1261 2573 1117 2451 
Q 973 2330 928 2173 
Q 883 2016 883 1811 
L 3795 1811 
Q 3795 2010 3756 2163 
Q 3718 2317 3603 2422 
Q 3488 2528 3241 2592 
Q 2995 2656 2560 2656 
z
" transform="scale(0.015625)"/>
       <path id="EurostileExtended-Roman-6b" d="M 3872 3008 
L 1658 1594 
L 4077 0 
L 3334 0 
L 1229 1421 
L 960 1421 
L 960 0 
L 512 0 
L 512 4307 
L 960 4307 
L 960 1805 
L 1229 1805 
L 3117 3008 
L 3872 3008 
z
" transform="scale(0.015625)"/>
       <path id="EurostileExtended-Roman-77" d="M 6003 3008 
L 4627 0 
L 3955 0 
L 2963 2669 
L 1971 0 
L 1306 0 
L -83 3008 
L 422 3008 
L 1632 333 
L 2624 3008 
L 3309 3008 
L 4301 333 
L 5491 3008 
L 6003 3008 
z
" transform="scale(0.015625)"/>
       <path id="EurostileExtended-Roman-28" d="M 1926 3853 
Q 1440 3853 1254 3693 
Q 1069 3533 1069 3059 
L 1043 1286 
L 1069 237 
Q 1069 -173 1219 -323 
Q 1370 -474 1722 -474 
Q 1901 -474 2074 -454 
L 2074 -922 
L 1798 -934 
Q 1229 -934 915 -704 
Q 602 -474 570 -144 
Q 538 186 531 394 
Q 525 602 525 704 
L 525 800 
L 518 1696 
L 557 3206 
Q 557 3808 877 4061 
Q 1197 4314 1837 4314 
L 2074 4307 
L 2074 3846 
L 1926 3853 
z
" transform="scale(0.015625)"/>
       <path id="EurostileExtended-Roman-35" d="M 1709 2880 
Q 1958 2899 2214 2899 
L 2387 2899 
L 3162 2899 
Q 3949 2899 4470 2739 
Q 4992 2579 5033 2220 
Q 5075 1862 5081 1718 
Q 5088 1574 5088 1402 
Q 5088 614 4809 291 
Q 4531 -32 3744 -32 
L 3072 -51 
L 1702 -19 
Q 973 -19 633 211 
Q 294 442 294 1146 
L 301 1293 
L 794 1293 
Q 794 851 954 665 
Q 1114 480 1549 442 
L 2669 403 
L 3776 435 
Q 4224 435 4393 633 
Q 4563 832 4563 1254 
Q 4563 1990 4416 2201 
Q 4269 2413 3552 2413 
L 1965 2445 
Q 1491 2445 1235 2390 
Q 979 2336 896 2048 
L 371 2048 
L 429 4269 
L 4954 4269 
L 4954 3827 
L 896 3827 
L 864 2400 
Q 998 2637 1203 2745 
Q 1408 2854 1709 2880 
z
" transform="scale(0.015625)"/>
       <path id="EurostileExtended-Roman-25" d="M 1626 4282 
Q 2310 4282 2512 4118 
Q 2714 3955 2714 3238 
Q 2714 2483 2534 2297 
Q 2355 2112 1690 2112 
L 890 2112 
Q 397 2112 265 2358 
Q 134 2605 134 3168 
Q 134 3942 329 4112 
Q 525 4282 1248 4282 
L 1626 4282 
z
M 954 2374 
L 1939 2381 
Q 2086 2381 2172 2400 
Q 2259 2419 2316 2499 
Q 2374 2579 2390 2752 
Q 2406 2925 2406 3142 
Q 2406 3808 2265 3917 
Q 2125 4026 1440 4026 
L 966 4013 
Q 634 4013 541 3897 
Q 448 3782 448 3258 
L 448 3174 
Q 448 2950 457 2787 
Q 467 2624 518 2531 
Q 570 2438 688 2406 
Q 806 2374 954 2374 
z
M 1504 0 
L 1171 0 
L 4717 4262 
L 5056 4262 
L 1504 0 
z
M 4998 2150 
Q 5683 2150 5884 1987 
Q 6086 1824 6086 1107 
Q 6086 326 5904 150 
Q 5722 -26 4998 -26 
L 4262 -19 
Q 3770 -19 3638 227 
Q 3507 474 3507 1037 
Q 3507 1818 3705 1984 
Q 3904 2150 4653 2150 
L 4998 2150 
z
M 3885 403 
Q 3942 307 4057 275 
Q 4173 243 4326 243 
L 4787 237 
L 5267 243 
Q 5421 243 5523 262 
Q 5626 282 5683 358 
Q 5741 435 5757 592 
Q 5773 749 5773 954 
L 5773 1203 
Q 5773 1402 5757 1542 
Q 5741 1683 5680 1756 
Q 5619 1830 5443 1859 
Q 5267 1888 5050 1888 
L 4813 1888 
L 4339 1875 
Q 3994 1875 3907 1753 
Q 3821 1632 3821 1190 
L 3821 1043 
L 3821 960 
Q 3821 736 3830 611 
Q 3840 486 3885 403 
z
" transform="scale(0.015625)"/>
       <path id="EurostileExtended-Roman-29" d="M 230 -474 
Q 717 -474 902 -314 
Q 1088 -154 1088 320 
L 1114 2093 
L 1088 3142 
Q 1088 3552 937 3702 
Q 787 3853 435 3853 
Q 256 3853 83 3834 
L 83 4301 
L 358 4314 
Q 928 4314 1241 4083 
Q 1555 3853 1587 3513 
Q 1619 3174 1625 2937 
Q 1632 2701 1632 2579 
L 1638 1683 
L 1600 173 
Q 1600 -429 1280 -681 
Q 960 -934 320 -934 
L 83 -928 
L 83 -467 
L 230 -474 
z
" transform="scale(0.015625)"/>
      </defs>
      <use xlink:href="#EurostileExtended-Roman-64"/>
      <use xlink:href="#EurostileExtended-Roman-73" x="75.499985"/>
      <use xlink:href="#EurostileExtended-Roman-61" x="146.799973"/>
      <use xlink:href="#EurostileExtended-Roman-74" x="218.09996"/>
      <use xlink:href="#EurostileExtended-Roman-6e" x="271.199951"/>
      <use xlink:href="#EurostileExtended-Roman-6f" x="343.499939"/>
      <use xlink:href="#EurostileExtended-Roman-72" x="418.499924"/>
      <use xlink:href="#EurostileExtended-Roman-64" x="478.299911"/>
      <use xlink:href="#EurostileExtended-Roman-2e" x="553.799896"/>
      <use xlink:href="#EurostileExtended-Roman-6d" x="591.499893"/>
      <use xlink:href="#EurostileExtended-Roman-70" x="707.399887"/>
      <use xlink:href="#EurostileExtended-Roman-3a" x="782.899872"/>
      <use xlink:href="#EurostileExtended-Roman-20" x="820.599869"/>
      <use xlink:href="#EurostileExtended-Roman-36" x="845.599854"/>
      <use xlink:href="#EurostileExtended-Roman-34" x="929.599838"/>
      <use xlink:href="#EurostileExtended-Roman-31" x="1013.599823"/>
      <use xlink:href="#EurostileExtended-Roman-2c" x="1097.599808"/>
      <use xlink:href="#EurostileExtended-Roman-32" x="1135.299805"/>
      <use xlink:href="#EurostileExtended-Roman-38" x="1219.299789"/>
      <use xlink:href="#EurostileExtended-Roman-36" x="1303.299774"/>
      <use xlink:href="#EurostileExtended-Roman-2c" x="1387.299759"/>
      <use xlink:href="#EurostileExtended-Roman-33" x="1424.999756"/>
      <use xlink:href="#EurostileExtended-Roman-32" x="1508.999741"/>
      <use xlink:href="#EurostileExtended-Roman-31" x="1592.999725"/>
      <use xlink:href="#EurostileExtended-Roman-20" x="1676.99971"/>
      <use xlink:href="#EurostileExtended-Roman-20" x="1701.999695"/>
      <use xlink:href="#EurostileExtended-Roman-6f" x="1726.99968"/>
      <use xlink:href="#EurostileExtended-Roman-66" x="1801.999664"/>
      <use xlink:href="#EurostileExtended-Roman-20" x="1839.699661"/>
      <use xlink:href="#EurostileExtended-Roman-20" x="1864.699646"/>
      <use xlink:href="#EurostileExtended-Roman-36" x="1889.699631"/>
      <use xlink:href="#EurostileExtended-Roman-34" x="1973.699615"/>
      <use xlink:href="#EurostileExtended-Roman-34" x="2057.6996"/>
      <use xlink:href="#EurostileExtended-Roman-2c" x="2141.699585"/>
      <use xlink:href="#EurostileExtended-Roman-38" x="2179.399582"/>
      <use xlink:href="#EurostileExtended-Roman-33" x="2263.399567"/>
      <use xlink:href="#EurostileExtended-Roman-33" x="2347.399551"/>
      <use xlink:href="#EurostileExtended-Roman-2c" x="2431.399536"/>
      <use xlink:href="#EurostileExtended-Roman-39" x="2469.099533"/>
      <use xlink:href="#EurostileExtended-Roman-31" x="2553.099518"/>
      <use xlink:href="#EurostileExtended-Roman-31" x="2637.099503"/>
      <use xlink:href="#EurostileExtended-Roman-20" x="2721.099487"/>
      <use xlink:href="#EurostileExtended-Roman-20" x="2746.099472"/>
      <use xlink:href="#EurostileExtended-Roman-62" x="2771.099457"/>
      <use xlink:href="#EurostileExtended-Roman-79" x="2846.599442"/>
      <use xlink:href="#EurostileExtended-Roman-74" x="2903.199432"/>
      <use xlink:href="#EurostileExtended-Roman-65" x="2956.299423"/>
      <use xlink:href="#EurostileExtended-Roman-73" x="3029.599411"/>
      <use xlink:href="#EurostileExtended-Roman-20" x="3100.899399"/>
      <use xlink:href="#EurostileExtended-Roman-20" x="3125.899384"/>
      <use xlink:href="#EurostileExtended-Roman-6b" x="3150.899368"/>
      <use xlink:href="#EurostileExtended-Roman-6e" x="3213.199356"/>
      <use xlink:href="#EurostileExtended-Roman-6f" x="3285.499344"/>
      <use xlink:href="#EurostileExtended-Roman-77" x="3360.499329"/>
      <use xlink:href="#EurostileExtended-Roman-6e" x="3452.999313"/>
      <use xlink:href="#EurostileExtended-Roman-20" x="3525.299301"/>
      <use xlink:href="#EurostileExtended-Roman-20" x="3550.299286"/>
      <use xlink:href="#EurostileExtended-Roman-28" x="3575.299271"/>
      <use xlink:href="#EurostileExtended-Roman-39" x="3608.899261"/>
      <use xlink:href="#EurostileExtended-Roman-39" x="3692.899246"/>
      <use xlink:href="#EurostileExtended-Roman-2e" x="3776.899231"/>
      <use xlink:href="#EurostileExtended-Roman-34" x="3814.599228"/>
      <use xlink:href="#EurostileExtended-Roman-35" x="3898.599213"/>
      <use xlink:href="#EurostileExtended-Roman-25" x="3982.599197"/>
      <use xlink:href="#EurostileExtended-Roman-29" x="4079.799179"/>
     </g>
    </g>
    <g id="patch_18">
     <path d="M 14.697 32.687905 
L 31.357 32.687905 
L 31.357 26.856905 
L 14.697 26.856905 
z
" style="fill: #ff0000; stroke: #ff0000; stroke-linejoin: miter"/>
    </g>
    <g id="text_2">
     <!-- header -->
     <g style="fill: #ff0000" transform="translate(38.021 32.687905) scale(0.0833 -0.0833)">
      <defs>
       <path id="DejaVuSans-68" d="M 3513 2113 
L 3513 0 
L 2938 0 
L 2938 2094 
Q 2938 2591 2744 2837 
Q 2550 3084 2163 3084 
Q 1697 3084 1428 2787 
Q 1159 2491 1159 1978 
L 1159 0 
L 581 0 
L 581 4863 
L 1159 4863 
L 1159 2956 
Q 1366 3272 1645 3428 
Q 1925 3584 2291 3584 
Q 2894 3584 3203 3211 
Q 3513 2838 3513 2113 
z
" transform="scale(0.015625)"/>
       <path id="DejaVuSans-65" d="M 3597 1894 
L 3597 1613 
L 953 1613 
Q 991 1019 1311 708 
Q 1631 397 2203 397 
Q 2534 397 2845 478 
Q 3156 559 3463 722 
L 3463 178 
Q 3153 47 2828 -22 
Q 2503 -91 2169 -91 
Q 1331 -91 842 396 
Q 353 884 353 1716 
Q 353 2575 817 3079 
Q 1281 3584 2069 3584 
Q 2775 3584 3186 3129 
Q 3597 2675 3597 1894 
z
M 3022 2063 
Q 3016 2534 2758 2815 
Q 2500 3097 2075 3097 
Q 1594 3097 1305 2825 
Q 1016 2553 972 2059 
L 3022 2063 
z
" transform="scale(0.015625)"/>
       <path id="DejaVuSans-61" d="M 2194 1759 
Q 1497 1759 1228 1600 
Q 959 1441 959 1056 
Q 959 750 1161 570 
Q 1363 391 1709 391 
Q 2188 391 2477 730 
Q 2766 1069 2766 1631 
L 2766 1759 
L 2194 1759 
z
M 3341 1997 
L 3341 0 
L 2766 0 
L 2766 531 
Q 2569 213 2275 61 
Q 1981 -91 1556 -91 
Q 1019 -91 701 211 
Q 384 513 384 1019 
Q 384 1609 779 1909 
Q 1175 2209 1959 2209 
L 2766 2209 
L 2766 2266 
Q 2766 2663 2505 2880 
Q 2244 3097 1772 3097 
Q 1472 3097 1187 3025 
Q 903 2953 641 2809 
L 641 3341 
Q 956 3463 1253 3523 
Q 1550 3584 1831 3584 
Q 2591 3584 2966 3190 
Q 3341 2797 3341 1997 
z
" transform="scale(0.015625)"/>
       <path id="DejaVuSans-64" d="M 2906 2969 
L 2906 4863 
L 3481 4863 
L 3481 0 
L 2906 0 
L 2906 525 
Q 2725 213 2448 61 
Q 2172 -91 1784 -91 
Q 1150 -91 751 415 
Q 353 922 353 1747 
Q 353 2572 751 3078 
Q 1150 3584 1784 3584 
Q 2172 3584 2448 3432 
Q 2725 3281 2906 2969 
z
M 947 1747 
Q 947 1113 1208 752 
Q 1469 391 1925 391 
Q 2381 391 2643 752 
Q 2906 1113 2906 1747 
Q 2906 2381 2643 2742 
Q 2381 3103 1925 3103 
Q 1469 3103 1208 2742 
Q 947 2381 947 1747 
z
" transform="scale(0.015625)"/>
       <path id="DejaVuSans-72" d="M 2631 2963 
Q 2534 3019 2420 3045 
Q 2306 3072 2169 3072 
Q 1681 3072 1420 2755 
Q 1159 2438 1159 1844 
L 1159 0 
L 581 0 
L 581 3500 
L 1159 3500 
L 1159 2956 
Q 1341 3275 1631 3429 
Q 1922 3584 2338 3584 
Q 2397 3584 2469 3576 
Q 2541 3569 2628 3553 
L 2631 2963 
z
" transform="scale(0.015625)"/>
      </defs>
      <use xlink:href="#DejaVuSans-68"/>
      <use xlink:href="#DejaVuSans-65" x="63.378906"/>
      <use xlink:href="#DejaVuSans-61" x="124.902344"/>
      <use xlink:href="#DejaVuSans-64" x="186.181641"/>
      <use xlink:href="#DejaVuSans-65" x="249.658203"/>
      <use xlink:href="#DejaVuSans-72" x="311.181641"/>
     </g>
    </g>
    <g id="patch_19">
     <path d="M 84.028631 32.687905 
L 100.688631 32.687905 
L 100.688631 26.856905 
L 84.028631 26.856905 
z
" style="fill: #0000ff; stroke: #0000ff; stroke-linejoin: miter"/>
    </g>
    <g id="text_3">
     <!-- offsets -->
     <g style="fill: #0000ff" transform="translate(107.352631 32.687905) scale(0.0833 -0.0833)">
      <defs>
       <path id="DejaVuSans-6f" d="M 1959 3097 
Q 1497 3097 1228 2736 
Q 959 2375 959 1747 
Q 959 1119 1226 758 
Q 1494 397 1959 397 
Q 2419 397 2687 759 
Q 2956 1122 2956 1747 
Q 2956 2369 2687 2733 
Q 2419 3097 1959 3097 
z
M 1959 3584 
Q 2709 3584 3137 3096 
Q 3566 2609 3566 1747 
Q 3566 888 3137 398 
Q 2709 -91 1959 -91 
Q 1206 -91 779 398 
Q 353 888 353 1747 
Q 353 2609 779 3096 
Q 1206 3584 1959 3584 
z
" transform="scale(0.015625)"/>
       <path id="DejaVuSans-66" d="M 2375 4863 
L 2375 4384 
L 1825 4384 
Q 1516 4384 1395 4259 
Q 1275 4134 1275 3809 
L 1275 3500 
L 2222 3500 
L 2222 3053 
L 1275 3053 
L 1275 0 
L 697 0 
L 697 3053 
L 147 3053 
L 147 3500 
L 697 3500 
L 697 3744 
Q 697 4328 969 4595 
Q 1241 4863 1831 4863 
L 2375 4863 
z
" transform="scale(0.015625)"/>
       <path id="DejaVuSans-73" d="M 2834 3397 
L 2834 2853 
Q 2591 2978 2328 3040 
Q 2066 3103 1784 3103 
Q 1356 3103 1142 2972 
Q 928 2841 928 2578 
Q 928 2378 1081 2264 
Q 1234 2150 1697 2047 
L 1894 2003 
Q 2506 1872 2764 1633 
Q 3022 1394 3022 966 
Q 3022 478 2636 193 
Q 2250 -91 1575 -91 
Q 1294 -91 989 -36 
Q 684 19 347 128 
L 347 722 
Q 666 556 975 473 
Q 1284 391 1588 391 
Q 1994 391 2212 530 
Q 2431 669 2431 922 
Q 2431 1156 2273 1281 
Q 2116 1406 1581 1522 
L 1381 1569 
Q 847 1681 609 1914 
Q 372 2147 372 2553 
Q 372 3047 722 3315 
Q 1072 3584 1716 3584 
Q 2034 3584 2315 3537 
Q 2597 3491 2834 3397 
z
" transform="scale(0.015625)"/>
       <path id="DejaVuSans-74" d="M 1172 4494 
L 1172 3500 
L 2356 3500 
L 2356 3053 
L 1172 3053 
L 1172 1153 
Q 1172 725 1289 603 
Q 1406 481 1766 481 
L 2356 481 
L 2356 0 
L 1766 0 
Q 1100 0 847 248 
Q 594 497 594 1153 
L 594 3053 
L 172 3053 
L 172 3500 
L 594 3500 
L 594 4494 
L 1172 4494 
z
" transform="scale(0.015625)"/>
      </defs>
      <use xlink:href="#DejaVuSans-6f"/>
      <use xlink:href="#DejaVuSans-66" x="61.181641"/>
      <use xlink:href="#DejaVuSans-66" x="96.386719"/>
      <use xlink:href="#DejaVuSans-73" x="131.591797"/>
      <use xlink:href="#DejaVuSans-65" x="183.691406"/>
      <use xlink:href="#DejaVuSans-74" x="245.214844"/>
      <use xlink:href="#DejaVuSans-73" x="284.423828"/>
     </g>
    </g>
    <g id="patch_20">
     <path d="M 152.044383 32.687905 
L 168.704383 32.687905 
L 168.704383 26.856905 
L 152.044383 26.856905 
z
" style="fill: #267d40; stroke: #267d40; stroke-linejoin: miter"/>
    </g>
    <g id="text_4">
     <!-- tiles0 -->
     <g style="fill: #267d40" transform="translate(175.368383 32.687905) scale(0.0833 -0.0833)">
      <defs>
       <path id="DejaVuSans-69" d="M 603 3500 
L 1178 3500 
L 1178 0 
L 603 0 
L 603 3500 
z
M 603 4863 
L 1178 4863 
L 1178 4134 
L 603 4134 
L 603 4863 
z
" transform="scale(0.015625)"/>
       <path id="DejaVuSans-6c" d="M 603 4863 
L 1178 4863 
L 1178 0 
L 603 0 
L 603 4863 
z
" transform="scale(0.015625)"/>
       <path id="DejaVuSans-30" d="M 2034 4250 
Q 1547 4250 1301 3770 
Q 1056 3291 1056 2328 
Q 1056 1369 1301 889 
Q 1547 409 2034 409 
Q 2525 409 2770 889 
Q 3016 1369 3016 2328 
Q 3016 3291 2770 3770 
Q 2525 4250 2034 4250 
z
M 2034 4750 
Q 2819 4750 3233 4129 
Q 3647 3509 3647 2328 
Q 3647 1150 3233 529 
Q 2819 -91 2034 -91 
Q 1250 -91 836 529 
Q 422 1150 422 2328 
Q 422 3509 836 4129 
Q 1250 4750 2034 4750 
z
" transform="scale(0.015625)"/>
      </defs>
      <use xlink:href="#DejaVuSans-74"/>
      <use xlink:href="#DejaVuSans-69" x="39.208984"/>
      <use xlink:href="#DejaVuSans-6c" x="66.992188"/>
      <use xlink:href="#DejaVuSans-65" x="94.775391"/>
      <use xlink:href="#DejaVuSans-73" x="156.298828"/>
      <use xlink:href="#DejaVuSans-30" x="208.398438"/>
     </g>
    </g>
    <g id="patch_21">
     <path d="M 214.687284 32.687905 
L 231.347284 32.687905 
L 231.347284 26.856905 
L 214.687284 26.856905 
z
" style="fill: #31a354; stroke: #31a354; stroke-linejoin: miter"/>
    </g>
    <g id="text_5">
     <!-- tiles1 -->
     <g style="fill: #31a354" transform="translate(238.011284 32.687905) scale(0.0833 -0.0833)">
      <defs>
       <path id="DejaVuSans-31" d="M 794 531 
L 1825 531 
L 1825 4091 
L 703 3866 
L 703 4441 
L 1819 4666 
L 2450 4666 
L 2450 531 
L 3481 531 
L 3481 0 
L 794 0 
L 794 531 
z
" transform="scale(0.015625)"/>
      </defs>
      <use xlink:href="#DejaVuSans-74"/>
      <use xlink:href="#DejaVuSans-69" x="39.208984"/>
      <use xlink:href="#DejaVuSans-6c" x="66.992188"/>
      <use xlink:href="#DejaVuSans-65" x="94.775391"/>
      <use xlink:href="#DejaVuSans-73" x="156.298828"/>
      <use xlink:href="#DejaVuSans-31" x="208.398438"/>
     </g>
    </g>
    <g id="patch_22">
     <path d="M 277.330186 32.687905 
L 293.990186 32.687905 
L 293.990186 26.856905 
L 277.330186 26.856905 
z
" style="fill: #ffffff; stroke: #ffffff; stroke-linejoin: miter"/>
    </g>
    <g id="text_6">
     <!-- paths -->
     <g style="fill: #ffffff" transform="translate(300.654186 32.687905) scale(0.0833 -0.0833)">
      <defs>
       <path id="DejaVuSans-70" d="M 1159 525 
L 1159 -1331 
L 581 -1331 
L 581 3500 
L 1159 3500 
L 1159 2969 
Q 1341 3281 1617 3432 
Q 1894 3584 2278 3584 
Q 2916 3584 3314 3078 
Q 3713 2572 3713 1747 
Q 3713 922 3314 415 
Q 2916 -91 2278 -91 
Q 1894 -91 1617 61 
Q 1341 213 1159 525 
z
M 3116 1747 
Q 3116 2381 2855 2742 
Q 2594 3103 2138 3103 
Q 1681 3103 1420 2742 
Q 1159 2381 1159 1747 
Q 1159 1113 1420 752 
Q 1681 391 2138 391 
Q 2594 391 2855 752 
Q 3116 1113 3116 1747 
z
" transform="scale(0.015625)"/>
      </defs>
      <use xlink:href="#DejaVuSans-70"/>
      <use xlink:href="#DejaVuSans-61" x="63.476562"/>
      <use xlink:href="#DejaVuSans-74" x="124.755859"/>
      <use xlink:href="#DejaVuSans-68" x="163.964844"/>
      <use xlink:href="#DejaVuSans-73" x="227.34375"/>
     </g>
    </g>
    <g id="patch_23">
     <path d="M 340.59133 32.687905 
L 357.25133 32.687905 
L 357.25133 26.856905 
L 340.59133 26.856905 
z
" style="fill: #ffffff; stroke: #ffffff; stroke-linejoin: miter"/>
    </g>
    <g id="text_7">
     <!-- topware -->
     <g style="fill: #ffffff" transform="translate(363.91533 32.687905) scale(0.0833 -0.0833)">
      <defs>
       <path id="DejaVuSans-77" d="M 269 3500 
L 844 3500 
L 1563 769 
L 2278 3500 
L 2956 3500 
L 3675 769 
L 4391 3500 
L 4966 3500 
L 4050 0 
L 3372 0 
L 2619 2869 
L 1863 0 
L 1184 0 
L 269 3500 
z
" transform="scale(0.015625)"/>
      </defs>
      <use xlink:href="#DejaVuSans-74"/>
      <use xlink:href="#DejaVuSans-6f" x="39.208984"/>
      <use xlink:href="#DejaVuSans-70" x="100.390625"/>
      <use xlink:href="#DejaVuSans-77" x="163.867188"/>
      <use xlink:href="#DejaVuSans-61" x="245.654297"/>
      <use xlink:href="#DejaVuSans-72" x="306.933594"/>
      <use xlink:href="#DejaVuSans-65" x="345.796875"/>
     </g>
    </g>
    <g id="patch_24">
     <path d="M 414.505762 32.687905 
L 431.165762 32.687905 
L 431.165762 26.856905 
L 414.505762 26.856905 
z
" style="fill: #974ea3; stroke: #974ea3; stroke-linejoin: miter"/>
    </g>
    <g id="text_8">
     <!-- places -->
     <g style="fill: #974ea3" transform="translate(437.829762 32.687905) scale(0.0833 -0.0833)">
      <defs>
       <path id="DejaVuSans-63" d="M 3122 3366 
L 3122 2828 
Q 2878 2963 2633 3030 
Q 2388 3097 2138 3097 
Q 1578 3097 1268 2742 
Q 959 2388 959 1747 
Q 959 1106 1268 751 
Q 1578 397 2138 397 
Q 2388 397 2633 464 
Q 2878 531 3122 666 
L 3122 134 
Q 2881 22 2623 -34 
Q 2366 -91 2075 -91 
Q 1284 -91 818 406 
Q 353 903 353 1747 
Q 353 2603 823 3093 
Q 1294 3584 2113 3584 
Q 2378 3584 2631 3529 
Q 2884 3475 3122 3366 
z
" transform="scale(0.015625)"/>
      </defs>
      <use xlink:href="#DejaVuSans-70"/>
      <use xlink:href="#DejaVuSans-6c" x="63.476562"/>
      <use xlink:href="#DejaVuSans-61" x="91.259766"/>
      <use xlink:href="#DejaVuSans-63" x="152.539062"/>
      <use xlink:href="#DejaVuSans-65" x="207.519531"/>
      <use xlink:href="#DejaVuSans-73" x="269.042969"/>
     </g>
    </g>
    <g id="patch_25">
     <path d="M 481.242078 32.687905 
L 497.902078 32.687905 
L 497.902078 26.856905 
L 481.242078 26.856905 
z
" style="fill: #ffffff; stroke: #ffffff; stroke-linejoin: miter"/>
    </g>
    <g id="text_9">
     <!-- unknown -->
     <g style="fill: #ffffff" transform="translate(504.566078 32.687905) scale(0.0833 -0.0833)">
      <defs>
       <path id="DejaVuSans-75" d="M 544 1381 
L 544 3500 
L 1119 3500 
L 1119 1403 
Q 1119 906 1312 657 
Q 1506 409 1894 409 
Q 2359 409 2629 706 
Q 2900 1003 2900 1516 
L 2900 3500 
L 3475 3500 
L 3475 0 
L 2900 0 
L 2900 538 
Q 2691 219 2414 64 
Q 2138 -91 1772 -91 
Q 1169 -91 856 284 
Q 544 659 544 1381 
z
M 1991 3584 
L 1991 3584 
z
" transform="scale(0.015625)"/>
       <path id="DejaVuSans-6e" d="M 3513 2113 
L 3513 0 
L 2938 0 
L 2938 2094 
Q 2938 2591 2744 2837 
Q 2550 3084 2163 3084 
Q 1697 3084 1428 2787 
Q 1159 2491 1159 1978 
L 1159 0 
L 581 0 
L 581 3500 
L 1159 3500 
L 1159 2956 
Q 1366 3272 1645 3428 
Q 1925 3584 2291 3584 
Q 2894 3584 3203 3211 
Q 3513 2838 3513 2113 
z
" transform="scale(0.015625)"/>
       <path id="DejaVuSans-6b" d="M 581 4863 
L 1159 4863 
L 1159 1991 
L 2875 3500 
L 3609 3500 
L 1753 1863 
L 3688 0 
L 2938 0 
L 1159 1709 
L 1159 0 
L 581 0 
L 581 4863 
z
" transform="scale(0.015625)"/>
      </defs>
      <use xlink:href="#DejaVuSans-75"/>
      <use xlink:href="#DejaVuSans-6e" x="63.378906"/>
      <use xlink:href="#DejaVuSans-6b" x="126.757812"/>
      <use xlink:href="#DejaVuSans-6e" x="184.667969"/>
      <use xlink:href="#DejaVuSans-6f" x="248.046875"/>
      <use xlink:href="#DejaVuSans-77" x="309.228516"/>
      <use xlink:href="#DejaVuSans-6e" x="391.015625"/>
     </g>
    </g>
    <g id="patch_26">
     <path d="M 559.075516 32.687905 
L 575.735516 32.687905 
L 575.735516 26.856905 
L 559.075516 26.856905 
z
" style="fill: #ffffff; stroke: #ffffff; stroke-linejoin: miter"/>
    </g>
    <g id="text_10">
     <!-- citysigns -->
     <g style="fill: #ffffff" transform="translate(582.399516 32.687905) scale(0.0833 -0.0833)">
      <defs>
       <path id="DejaVuSans-79" d="M 2059 -325 
Q 1816 -950 1584 -1140 
Q 1353 -1331 966 -1331 
L 506 -1331 
L 506 -850 
L 844 -850 
Q 1081 -850 1212 -737 
Q 1344 -625 1503 -206 
L 1606 56 
L 191 3500 
L 800 3500 
L 1894 763 
L 2988 3500 
L 3597 3500 
L 2059 -325 
z
" transform="scale(0.015625)"/>
       <path id="DejaVuSans-67" d="M 2906 1791 
Q 2906 2416 2648 2759 
Q 2391 3103 1925 3103 
Q 1463 3103 1205 2759 
Q 947 2416 947 1791 
Q 947 1169 1205 825 
Q 1463 481 1925 481 
Q 2391 481 2648 825 
Q 2906 1169 2906 1791 
z
M 3481 434 
Q 3481 -459 3084 -895 
Q 2688 -1331 1869 -1331 
Q 1566 -1331 1297 -1286 
Q 1028 -1241 775 -1147 
L 775 -588 
Q 1028 -725 1275 -790 
Q 1522 -856 1778 -856 
Q 2344 -856 2625 -561 
Q 2906 -266 2906 331 
L 2906 616 
Q 2728 306 2450 153 
Q 2172 0 1784 0 
Q 1141 0 747 490 
Q 353 981 353 1791 
Q 353 2603 747 3093 
Q 1141 3584 1784 3584 
Q 2172 3584 2450 3431 
Q 2728 3278 2906 2969 
L 2906 3500 
L 3481 3500 
L 3481 434 
z
" transform="scale(0.015625)"/>
      </defs>
      <use xlink:href="#DejaVuSans-63"/>
      <use xlink:href="#DejaVuSans-69" x="54.980469"/>
      <use xlink:href="#DejaVuSans-74" x="82.763672"/>
      <use xlink:href="#DejaVuSans-79" x="121.972656"/>
      <use xlink:href="#DejaVuSans-73" x="181.152344"/>
      <use xlink:href="#DejaVuSans-69" x="233.251953"/>
      <use xlink:href="#DejaVuSans-67" x="261.035156"/>
      <use xlink:href="#DejaVuSans-6e" x="324.511719"/>
      <use xlink:href="#DejaVuSans-73" x="387.890625"/>
     </g>
    </g>
    <g id="patch_27">
     <path d="M 635.710214 32.687905 
L 652.370214 32.687905 
L 652.370214 26.856905 
L 635.710214 26.856905 
z
" style="fill: #6baed6; stroke: #6baed6; stroke-linejoin: miter"/>
    </g>
    <g id="text_11">
     <!-- paths -->
     <g style="fill: #6baed6" transform="translate(659.034214 32.687905) scale(0.0833 -0.0833)">
      <use xlink:href="#DejaVuSans-70"/>
      <use xlink:href="#DejaVuSans-61" x="63.476562"/>
      <use xlink:href="#DejaVuSans-74" x="124.755859"/>
      <use xlink:href="#DejaVuSans-68" x="163.964844"/>
      <use xlink:href="#DejaVuSans-73" x="227.34375"/>
     </g>
    </g>
    <g id="patch_28">
     <path d="M 698.971358 32.687905 
L 715.631358 32.687905 
L 715.631358 26.856905 
L 698.971358 26.856905 
z
" style="fill: #73c475; stroke: #73c475; stroke-linejoin: miter"/>
    </g>
    <g id="text_12">
     <!-- tiles2 -->
     <g style="fill: #73c475" transform="translate(722.295358 32.687905) scale(0.0833 -0.0833)">
      <defs>
       <path id="DejaVuSans-32" d="M 1228 531 
L 3431 531 
L 3431 0 
L 469 0 
L 469 531 
Q 828 903 1448 1529 
Q 2069 2156 2228 2338 
Q 2531 2678 2651 2914 
Q 2772 3150 2772 3378 
Q 2772 3750 2511 3984 
Q 2250 4219 1831 4219 
Q 1534 4219 1204 4116 
Q 875 4013 500 3803 
L 500 4441 
Q 881 4594 1212 4672 
Q 1544 4750 1819 4750 
Q 2544 4750 2975 4387 
Q 3406 4025 3406 3419 
Q 3406 3131 3298 2873 
Q 3191 2616 2906 2266 
Q 2828 2175 2409 1742 
Q 1991 1309 1228 531 
z
" transform="scale(0.015625)"/>
      </defs>
      <use xlink:href="#DejaVuSans-74"/>
      <use xlink:href="#DejaVuSans-69" x="39.208984"/>
      <use xlink:href="#DejaVuSans-6c" x="66.992188"/>
      <use xlink:href="#DejaVuSans-65" x="94.775391"/>
      <use xlink:href="#DejaVuSans-73" x="156.298828"/>
      <use xlink:href="#DejaVuSans-32" x="208.398438"/>
     </g>
    </g>
    <g id="patch_29">
     <path d="M 761.614259 32.687905 
L 778.274259 32.687905 
L 778.274259 26.856905 
L 761.614259 26.856905 
z
" style="fill: #a1d99b; stroke: #000000; stroke-linejoin: miter"/>
    </g>
    <g id="text_13">
     <!-- tiles3 -->
     <g style="fill: #a1d99b" transform="translate(784.938259 32.687905) scale(0.0833 -0.0833)">
      <defs>
       <path id="DejaVuSans-33" d="M 2597 2516 
Q 3050 2419 3304 2112 
Q 3559 1806 3559 1356 
Q 3559 666 3084 287 
Q 2609 -91 1734 -91 
Q 1441 -91 1130 -33 
Q 819 25 488 141 
L 488 750 
Q 750 597 1062 519 
Q 1375 441 1716 441 
Q 2309 441 2620 675 
Q 2931 909 2931 1356 
Q 2931 1769 2642 2001 
Q 2353 2234 1838 2234 
L 1294 2234 
L 1294 2753 
L 1863 2753 
Q 2328 2753 2575 2939 
Q 2822 3125 2822 3475 
Q 2822 3834 2567 4026 
Q 2313 4219 1838 4219 
Q 1578 4219 1281 4162 
Q 984 4106 628 3988 
L 628 4550 
Q 988 4650 1302 4700 
Q 1616 4750 1894 4750 
Q 2613 4750 3031 4423 
Q 3450 4097 3450 3541 
Q 3450 3153 3228 2886 
Q 3006 2619 2597 2516 
z
" transform="scale(0.015625)"/>
      </defs>
      <use xlink:href="#DejaVuSans-74"/>
      <use xlink:href="#DejaVuSans-69" x="39.208984"/>
      <use xlink:href="#DejaVuSans-6c" x="66.992188"/>
      <use xlink:href="#DejaVuSans-65" x="94.775391"/>
      <use xlink:href="#DejaVuSans-73" x="156.298828"/>
      <use xlink:href="#DejaVuSans-33" x="208.398438"/>
     </g>
    </g>
    <g id="patch_30">
     <path d="M 824.257161 32.687905 
L 840.917161 32.687905 
L 840.917161 26.856905 
L 824.257161 26.856905 
z
" style="fill: #ffffff; stroke: #ffffff; stroke-linejoin: miter"/>
    </g>
    <g id="text_14">
     <!-- unknown -->
     <g style="fill: #ffffff" transform="translate(847.581161 32.687905) scale(0.0833 -0.0833)">
      <use xlink:href="#DejaVuSans-75"/>
      <use xlink:href="#DejaVuSans-6e" x="63.378906"/>
      <use xlink:href="#DejaVuSans-6b" x="126.757812"/>
      <use xlink:href="#DejaVuSans-6e" x="184.667969"/>
      <use xlink:href="#DejaVuSans-6f" x="248.046875"/>
      <use xlink:href="#DejaVuSans-77" x="309.228516"/>
      <use xlink:href="#DejaVuSans-6e" x="391.015625"/>
     </g>
    </g>
    <g id="patch_31">
     <path d="M 902.090598 32.687905 
L 918.750598 32.687905 
L 918.750598 26.856905 
L 902.090598 26.856905 
z
" style="fill: #ffffff; stroke: #ffffff; stroke-linejoin: miter"/>
    </g>
    <g id="text_15">
     <!-- unknown -->
     <g style="fill: #ffffff" transform="translate(925.414598 32.687905) scale(0.0833 -0.0833)">
      <use xlink:href="#DejaVuSans-75"/>
      <use xlink:href="#DejaVuSans-6e" x="63.378906"/>
      <use xlink:href="#DejaVuSans-6b" x="126.757812"/>
      <use xlink:href="#DejaVuSans-6e" x="184.667969"/>
      <use xlink:href="#DejaVuSans-6f" x="248.046875"/>
      <use xlink:href="#DejaVuSans-77" x="309.228516"/>
      <use xlink:href="#DejaVuSans-6e" x="391.015625"/>
     </g>
    </g>
   </g>
  </g>
 </g>
 <defs>
  <clipPath id="p0141037b93">
   <rect x="7.2" y="41.917284" width="953.555" height="12.466"/>
  </clipPath>
 </defs>
</svg>
